# MagicaVoxel @ ephtracy

# material
mtllib ChasmGroundCornerOne.mtl
usemtl palette

# normals
vn -1 0 0
vn 1 0 0
vn 0 0 1
vn 0 0 -1
vn 0 -1 0
vn 0 1 0

# texcoords
vt 0.990234 0.5

# verts
v -48 0 16
v -48 0 -48
v -48 92 -20
v -48 92 -40
v -48 96 16
v -48 96 -20
v -48 96 -40
v -48 96 -48
v -40 92 -20
v -40 92 -40
v -40 96 -20
v -40 96 -40
v -36 88 12
v -36 88 4
v -36 96 12
v -36 96 4
v -24 92 -8
v -24 92 -16
v -24 96 -8
v -24 96 -16
v -20 92 -20
v -20 92 -24
v -20 92 -28
v -20 92 -36
v -20 96 -20
v -20 96 -24
v -20 96 -28
v -20 96 -36
v -16 92 -24
v -16 92 -28
v -16 96 -24
v -16 96 -28
v 0 52 -20
v 0 52 -24
v 0 64 -20
v 0 64 -24
v 4 92 -32
v 4 92 -44
v 4 96 -32
v 4 96 -44
v 8 24 -24
v 8 24 -28
v 8 36 -24
v 8 36 -28
v -44 92 -8
v -44 92 -16
v -44 96 -8
v -44 96 -16
v -40 88 12
v -40 88 4
v -40 96 12
v -40 96 4
v -32 0 16
v -32 0 12
v -32 40 12
v -32 40 -12
v -32 48 12
v -32 48 -12
v -32 52 8
v -32 52 -24
v -32 64 8
v -32 64 -24
v -32 92 -20
v -32 92 -36
v -32 96 16
v -32 96 12
v -32 96 -20
v -32 96 -36
v -28 0 12
v -28 0 4
v -28 40 12
v -28 40 4
v -28 48 12
v -28 48 4
v -28 52 8
v -28 52 4
v -28 64 8
v -28 64 4
v -28 80 4
v -28 80 -0
v -28 84 4
v -28 84 -0
v -28 96 12
v -28 96 4
v -24 20 4
v -24 20 -12
v -24 28 4
v -24 28 -12
v -24 76 -0
v -24 76 -4
v -24 80 -0
v -24 80 -4
v -20 0 4
v -20 0 -4
v -20 20 4
v -20 20 -4
v -20 28 4
v -20 28 -4
v -20 40 4
v -20 40 -4
v -20 48 4
v -20 48 -4
v -20 52 4
v -20 52 -4
v -20 64 4
v -20 64 -4
v -20 72 -4
v -20 72 -12
v -20 76 -0
v -20 76 -4
v -20 76 -12
v -20 80 4
v -20 80 -0
v -20 80 -4
v -20 84 4
v -20 84 -0
v -20 96 4
v -20 96 -4
v -16 0 -4
v -16 0 -8
v -16 20 -4
v -16 20 -8
v -16 28 -4
v -16 28 -8
v -16 40 -4
v -16 40 -8
v -16 48 -4
v -16 48 -8
v -16 52 -4
v -16 52 -8
v -16 64 -4
v -16 64 -8
v -16 72 -4
v -16 72 -8
v -16 76 -4
v -16 76 -8
v -16 96 -4
v -16 96 -8
v -12 0 -8
v -12 0 -12
v -12 20 -8
v -12 20 -12
v -12 28 -8
v -12 28 -12
v -12 40 -8
v -12 40 -12
v -12 48 -8
v -12 48 -12
v -12 52 -8
v -12 52 -12
v -12 64 -8
v -12 64 -12
v -12 72 -8
v -12 72 -12
v -12 76 -8
v -12 76 -12
v -12 92 -32
v -12 92 -44
v -12 96 -8
v -12 96 -12
v -12 96 -32
v -12 96 -44
v -8 0 -12
v -8 0 -16
v -8 24 -16
v -8 24 -20
v -8 28 -16
v -8 28 -20
v -8 36 -16
v -8 36 -20
v -8 40 -16
v -8 40 -20
v -8 52 -12
v -8 52 -16
v -8 64 -12
v -8 64 -16
v -8 80 -16
v -8 80 -24
v -8 88 -16
v -8 88 -24
v -8 96 -12
v -8 96 -16
v -4 0 -16
v -4 0 -20
v -4 24 -16
v -4 24 -20
v -4 28 -16
v -4 28 -20
v -4 36 -16
v -4 36 -20
v -4 40 -16
v -4 40 -20
v -4 52 -16
v -4 52 -20
v -4 64 -16
v -4 64 -20
v -4 80 -16
v -4 80 -20
v -4 88 -16
v -4 88 -20
v -4 96 -16
v -4 96 -20
v 0 8 -20
v 0 8 -24
v 0 16 -20
v 0 16 -24
v 4 0 -20
v 4 0 -24
v 4 8 -20
v 4 8 -24
v 4 16 -20
v 4 16 -24
v 4 24 -24
v 4 24 -28
v 4 36 -24
v 4 36 -28
v 4 60 -24
v 4 60 -28
v 4 72 -24
v 4 72 -28
v 4 80 -20
v 4 80 -24
v 4 88 -20
v 4 88 -24
v 4 92 -24
v 4 92 -28
v 4 96 -20
v 4 96 -28
v 12 0 -24
v 12 0 -32
v 12 60 -24
v 12 60 -28
v 12 72 -24
v 12 72 -28
v 12 92 -24
v 12 92 -28
v 12 96 -28
v 12 96 -32
v 16 0 -32
v 16 0 -48
v 16 96 -32
v 16 96 -48
v -48 0 16
v -48 96 16
v -32 0 16
v -32 96 16
v -32 0 12
v -32 40 12
v -32 48 12
v -32 96 12
v -28 0 12
v -28 40 12
v -28 48 12
v -28 96 12
v -40 88 4
v -40 96 4
v -36 88 4
v -36 96 4
v -28 0 4
v -28 40 4
v -28 48 4
v -28 52 4
v -28 64 4
v -28 80 4
v -28 84 4
v -28 96 4
v -24 20 4
v -24 28 4
v -20 0 4
v -20 20 4
v -20 28 4
v -20 40 4
v -20 48 4
v -20 52 4
v -20 64 4
v -20 80 4
v -20 84 4
v -20 96 4
v -28 80 -0
v -28 84 -0
v -20 80 -0
v -20 84 -0
v -24 76 -4
v -24 80 -4
v -20 0 -4
v -20 20 -4
v -20 28 -4
v -20 40 -4
v -20 48 -4
v -20 52 -4
v -20 64 -4
v -20 72 -4
v -20 76 -4
v -20 80 -4
v -20 96 -4
v -16 0 -4
v -16 20 -4
v -16 28 -4
v -16 40 -4
v -16 48 -4
v -16 52 -4
v -16 64 -4
v -16 72 -4
v -16 76 -4
v -16 96 -4
v -16 0 -8
v -16 20 -8
v -16 28 -8
v -16 40 -8
v -16 48 -8
v -16 52 -8
v -16 64 -8
v -16 72 -8
v -16 76 -8
v -16 96 -8
v -12 0 -8
v -12 20 -8
v -12 28 -8
v -12 40 -8
v -12 48 -8
v -12 52 -8
v -12 64 -8
v -12 72 -8
v -12 76 -8
v -12 96 -8
v -32 40 -12
v -32 48 -12
v -24 20 -12
v -24 28 -12
v -20 72 -12
v -20 76 -12
v -12 0 -12
v -12 20 -12
v -12 28 -12
v -12 40 -12
v -12 48 -12
v -12 52 -12
v -12 64 -12
v -12 72 -12
v -12 76 -12
v -12 96 -12
v -8 0 -12
v -8 52 -12
v -8 64 -12
v -8 96 -12
v -44 92 -16
v -44 96 -16
v -24 92 -16
v -24 96 -16
v -8 0 -16
v -8 24 -16
v -8 28 -16
v -8 36 -16
v -8 40 -16
v -8 52 -16
v -8 64 -16
v -8 80 -16
v -8 88 -16
v -8 96 -16
v -4 0 -16
v -4 24 -16
v -4 28 -16
v -4 36 -16
v -4 40 -16
v -4 52 -16
v -4 64 -16
v -4 80 -16
v -4 88 -16
v -4 96 -16
v -8 24 -20
v -8 28 -20
v -8 36 -20
v -8 40 -20
v -4 0 -20
v -4 24 -20
v -4 28 -20
v -4 36 -20
v -4 40 -20
v -4 52 -20
v -4 64 -20
v -4 80 -20
v -4 88 -20
v -4 96 -20
v 0 8 -20
v 0 16 -20
v 0 52 -20
v 0 64 -20
v 4 0 -20
v 4 8 -20
v 4 16 -20
v 4 80 -20
v 4 88 -20
v 4 96 -20
v -32 52 -24
v -32 64 -24
v -8 80 -24
v -8 88 -24
v 0 8 -24
v 0 16 -24
v 0 52 -24
v 0 64 -24
v 4 0 -24
v 4 8 -24
v 4 16 -24
v 4 24 -24
v 4 36 -24
v 4 60 -24
v 4 72 -24
v 4 80 -24
v 4 88 -24
v 4 92 -24
v 8 24 -24
v 8 36 -24
v 12 0 -24
v 12 60 -24
v 12 72 -24
v 12 92 -24
v -20 92 -28
v -20 96 -28
v -16 92 -28
v -16 96 -28
v 4 24 -28
v 4 36 -28
v 4 60 -28
v 4 72 -28
v 4 92 -28
v 4 96 -28
v 8 24 -28
v 8 36 -28
v 12 60 -28
v 12 72 -28
v 12 92 -28
v 12 96 -28
v 12 0 -32
v 12 96 -32
v 16 0 -32
v 16 96 -32
v -32 92 -36
v -32 96 -36
v -20 92 -36
v -20 96 -36
v -48 92 -40
v -48 96 -40
v -40 92 -40
v -40 96 -40
v -12 92 -44
v -12 96 -44
v 4 92 -44
v 4 96 -44
v -40 88 12
v -40 96 12
v -36 88 12
v -36 96 12
v -32 52 8
v -32 64 8
v -28 52 8
v -28 64 8
v -24 76 -0
v -24 80 -0
v -20 76 -0
v -20 80 -0
v -44 92 -8
v -44 96 -8
v -24 92 -8
v -24 96 -8
v -48 92 -20
v -48 96 -20
v -40 92 -20
v -40 96 -20
v -32 92 -20
v -32 96 -20
v -20 92 -20
v -20 96 -20
v -20 92 -24
v -20 96 -24
v -16 92 -24
v -16 96 -24
v -12 92 -32
v -12 96 -32
v 4 92 -32
v 4 96 -32
v -48 0 -48
v -48 96 -48
v 16 0 -48
v 16 96 -48
v -48 0 16
v -32 0 16
v -32 0 12
v -28 0 12
v -28 0 4
v -20 0 4
v -20 0 -4
v -16 0 -4
v -16 0 -8
v -12 0 -8
v -12 0 -12
v -8 0 -12
v -8 0 -16
v -4 0 -16
v -4 0 -20
v 4 0 -20
v 4 0 -24
v 12 0 -24
v 12 0 -32
v 16 0 -32
v -48 0 -48
v 16 0 -48
v 0 16 -20
v 4 16 -20
v 0 16 -24
v 4 16 -24
v -24 28 4
v -20 28 4
v -20 28 -4
v -16 28 -4
v -16 28 -8
v -12 28 -8
v -24 28 -12
v -12 28 -12
v -8 28 -16
v -4 28 -16
v -8 28 -20
v -4 28 -20
v 4 36 -24
v 8 36 -24
v 4 36 -28
v 8 36 -28
v -8 40 -16
v -4 40 -16
v -8 40 -20
v -4 40 -20
v -32 48 12
v -28 48 12
v -28 48 4
v -20 48 4
v -20 48 -4
v -16 48 -4
v -16 48 -8
v -12 48 -8
v -32 48 -12
v -12 48 -12
v -32 64 8
v -28 64 8
v -28 64 4
v -20 64 4
v -20 64 -4
v -16 64 -4
v -16 64 -8
v -12 64 -8
v -12 64 -12
v -8 64 -12
v -8 64 -16
v -4 64 -16
v -4 64 -20
v 0 64 -20
v -32 64 -24
v 0 64 -24
v 4 72 -24
v 12 72 -24
v 4 72 -28
v 12 72 -28
v -20 76 -4
v -16 76 -4
v -16 76 -8
v -12 76 -8
v -20 76 -12
v -12 76 -12
v -24 80 -0
v -20 80 -0
v -24 80 -4
v -20 80 -4
v -28 84 4
v -20 84 4
v -28 84 -0
v -20 84 -0
v -8 88 -16
v -4 88 -16
v -4 88 -20
v 4 88 -20
v -8 88 -24
v 4 88 -24
v 0 8 -20
v 4 8 -20
v 0 8 -24
v 4 8 -24
v -24 20 4
v -20 20 4
v -20 20 -4
v -16 20 -4
v -16 20 -8
v -12 20 -8
v -24 20 -12
v -12 20 -12
v -8 24 -16
v -4 24 -16
v -8 24 -20
v -4 24 -20
v 4 24 -24
v 8 24 -24
v 4 24 -28
v 8 24 -28
v -8 36 -16
v -4 36 -16
v -8 36 -20
v -4 36 -20
v -32 40 12
v -28 40 12
v -28 40 4
v -20 40 4
v -20 40 -4
v -16 40 -4
v -16 40 -8
v -12 40 -8
v -32 40 -12
v -12 40 -12
v -32 52 8
v -28 52 8
v -28 52 4
v -20 52 4
v -20 52 -4
v -16 52 -4
v -16 52 -8
v -12 52 -8
v -12 52 -12
v -8 52 -12
v -8 52 -16
v -4 52 -16
v -4 52 -20
v 0 52 -20
v -32 52 -24
v 0 52 -24
v 4 60 -24
v 12 60 -24
v 4 60 -28
v 12 60 -28
v -20 72 -4
v -16 72 -4
v -16 72 -8
v -12 72 -8
v -20 72 -12
v -12 72 -12
v -24 76 -0
v -20 76 -0
v -24 76 -4
v -20 76 -4
v -28 80 4
v -20 80 4
v -28 80 -0
v -20 80 -0
v -8 80 -16
v -4 80 -16
v -4 80 -20
v 4 80 -20
v -8 80 -24
v 4 80 -24
v -40 88 12
v -36 88 12
v -40 88 4
v -36 88 4
v -44 92 -8
v -24 92 -8
v -44 92 -16
v -24 92 -16
v -48 92 -20
v -40 92 -20
v -32 92 -20
v -20 92 -20
v -20 92 -24
v -16 92 -24
v 4 92 -24
v 12 92 -24
v -20 92 -28
v -16 92 -28
v 4 92 -28
v 12 92 -28
v -12 92 -32
v 4 92 -32
v -32 92 -36
v -20 92 -36
v -48 92 -40
v -40 92 -40
v -12 92 -44
v 4 92 -44
v -48 96 16
v -32 96 16
v -40 96 12
v -36 96 12
v -32 96 12
v -28 96 12
v -40 96 4
v -36 96 4
v -28 96 4
v -20 96 4
v -20 96 -4
v -16 96 -4
v -44 96 -8
v -24 96 -8
v -16 96 -8
v -12 96 -8
v -12 96 -12
v -8 96 -12
v -44 96 -16
v -24 96 -16
v -8 96 -16
v -4 96 -16
v -48 96 -20
v -40 96 -20
v -32 96 -20
v -20 96 -20
v -4 96 -20
v 4 96 -20
v -20 96 -24
v -16 96 -24
v -20 96 -28
v -16 96 -28
v 4 96 -28
v 12 96 -28
v -12 96 -32
v 4 96 -32
v 12 96 -32
v 16 96 -32
v -32 96 -36
v -20 96 -36
v -48 96 -40
v -40 96 -40
v -12 96 -44
v 4 96 -44
v -48 96 -48
v 16 96 -48

# faces
f 3/1/1 2/1/1 1/1/1
f 4/1/1 2/1/1 3/1/1
f 5/1/1 3/1/1 1/1/1
f 6/1/1 3/1/1 5/1/1
f 7/1/1 2/1/1 4/1/1
f 8/1/1 2/1/1 7/1/1
f 11/1/1 10/1/1 9/1/1
f 12/1/1 10/1/1 11/1/1
f 15/1/1 14/1/1 13/1/1
f 16/1/1 14/1/1 15/1/1
f 19/1/1 18/1/1 17/1/1
f 20/1/1 18/1/1 19/1/1
f 25/1/1 22/1/1 21/1/1
f 26/1/1 22/1/1 25/1/1
f 27/1/1 24/1/1 23/1/1
f 28/1/1 24/1/1 27/1/1
f 31/1/1 30/1/1 29/1/1
f 32/1/1 30/1/1 31/1/1
f 35/1/1 34/1/1 33/1/1
f 36/1/1 34/1/1 35/1/1
f 39/1/1 38/1/1 37/1/1
f 40/1/1 38/1/1 39/1/1
f 43/1/1 42/1/1 41/1/1
f 44/1/1 42/1/1 43/1/1
f 45/1/2 46/1/2 47/1/2
f 47/1/2 46/1/2 48/1/2
f 49/1/2 50/1/2 51/1/2
f 51/1/2 50/1/2 52/1/2
f 53/1/2 54/1/2 55/1/2
f 53/1/2 55/1/2 57/1/2
f 55/1/2 56/1/2 57/1/2
f 57/1/2 56/1/2 58/1/2
f 59/1/2 60/1/2 61/1/2
f 61/1/2 60/1/2 62/1/2
f 53/1/2 57/1/2 65/1/2
f 65/1/2 57/1/2 66/1/2
f 63/1/2 64/1/2 67/1/2
f 67/1/2 64/1/2 68/1/2
f 69/1/2 70/1/2 71/1/2
f 71/1/2 70/1/2 72/1/2
f 73/1/2 74/1/2 75/1/2
f 75/1/2 74/1/2 76/1/2
f 73/1/2 75/1/2 77/1/2
f 77/1/2 78/1/2 79/1/2
f 77/1/2 79/1/2 81/1/2
f 79/1/2 80/1/2 81/1/2
f 81/1/2 80/1/2 82/1/2
f 73/1/2 77/1/2 83/1/2
f 77/1/2 81/1/2 83/1/2
f 83/1/2 81/1/2 84/1/2
f 85/1/2 86/1/2 87/1/2
f 87/1/2 86/1/2 88/1/2
f 89/1/2 90/1/2 91/1/2
f 91/1/2 90/1/2 92/1/2
f 93/1/2 94/1/2 95/1/2
f 95/1/2 94/1/2 96/1/2
f 97/1/2 98/1/2 99/1/2
f 99/1/2 98/1/2 100/1/2
f 101/1/2 102/1/2 103/1/2
f 103/1/2 102/1/2 104/1/2
f 105/1/2 106/1/2 107/1/2
f 105/1/2 107/1/2 109/1/2
f 107/1/2 108/1/2 109/1/2
f 109/1/2 108/1/2 110/1/2
f 110/1/2 108/1/2 111/1/2
f 105/1/2 109/1/2 112/1/2
f 112/1/2 109/1/2 113/1/2
f 113/1/2 114/1/2 116/1/2
f 115/1/2 116/1/2 117/1/2
f 116/1/2 114/1/2 118/1/2
f 117/1/2 116/1/2 118/1/2
f 119/1/2 120/1/2 121/1/2
f 121/1/2 120/1/2 122/1/2
f 123/1/2 124/1/2 125/1/2
f 125/1/2 124/1/2 126/1/2
f 127/1/2 128/1/2 129/1/2
f 129/1/2 128/1/2 130/1/2
f 131/1/2 132/1/2 133/1/2
f 133/1/2 132/1/2 134/1/2
f 135/1/2 136/1/2 137/1/2
f 137/1/2 136/1/2 138/1/2
f 139/1/2 140/1/2 141/1/2
f 141/1/2 140/1/2 142/1/2
f 143/1/2 144/1/2 145/1/2
f 145/1/2 144/1/2 146/1/2
f 147/1/2 148/1/2 149/1/2
f 149/1/2 148/1/2 150/1/2
f 151/1/2 152/1/2 153/1/2
f 153/1/2 152/1/2 154/1/2
f 155/1/2 156/1/2 159/1/2
f 159/1/2 156/1/2 160/1/2
f 157/1/2 158/1/2 161/1/2
f 161/1/2 158/1/2 162/1/2
f 163/1/2 164/1/2 165/1/2
f 163/1/2 165/1/2 167/1/2
f 165/1/2 166/1/2 167/1/2
f 167/1/2 166/1/2 168/1/2
f 163/1/2 167/1/2 169/1/2
f 163/1/2 169/1/2 171/1/2
f 169/1/2 170/1/2 171/1/2
f 171/1/2 170/1/2 172/1/2
f 163/1/2 171/1/2 173/1/2
f 173/1/2 171/1/2 174/1/2
f 175/1/2 176/1/2 177/1/2
f 175/1/2 177/1/2 179/1/2
f 177/1/2 178/1/2 179/1/2
f 179/1/2 178/1/2 180/1/2
f 175/1/2 179/1/2 181/1/2
f 181/1/2 179/1/2 182/1/2
f 183/1/2 184/1/2 185/1/2
f 185/1/2 184/1/2 186/1/2
f 187/1/2 188/1/2 189/1/2
f 189/1/2 188/1/2 190/1/2
f 191/1/2 192/1/2 193/1/2
f 193/1/2 192/1/2 194/1/2
f 195/1/2 196/1/2 197/1/2
f 197/1/2 196/1/2 198/1/2
f 199/1/2 200/1/2 201/1/2
f 201/1/2 200/1/2 202/1/2
f 203/1/2 204/1/2 205/1/2
f 205/1/2 204/1/2 206/1/2
f 207/1/2 208/1/2 209/1/2
f 209/1/2 208/1/2 210/1/2
f 211/1/2 212/1/2 213/1/2
f 211/1/2 213/1/2 215/1/2
f 213/1/2 214/1/2 215/1/2
f 215/1/2 214/1/2 216/1/2
f 211/1/2 215/1/2 217/1/2
f 211/1/2 217/1/2 219/1/2
f 217/1/2 218/1/2 219/1/2
f 219/1/2 218/1/2 220/1/2
f 211/1/2 219/1/2 221/1/2
f 221/1/2 219/1/2 222/1/2
f 223/1/2 224/1/2 225/1/2
f 223/1/2 225/1/2 227/1/2
f 225/1/2 226/1/2 227/1/2
f 227/1/2 226/1/2 228/1/2
f 229/1/2 230/1/2 231/1/2
f 231/1/2 230/1/2 232/1/2
f 232/1/2 230/1/2 234/1/2
f 233/1/2 234/1/2 235/1/2
f 234/1/2 230/1/2 236/1/2
f 235/1/2 234/1/2 236/1/2
f 236/1/2 230/1/2 237/1/2
f 237/1/2 230/1/2 238/1/2
f 239/1/2 240/1/2 241/1/2
f 241/1/2 240/1/2 242/1/2
f 245/1/3 244/1/3 243/1/3
f 246/1/3 244/1/3 245/1/3
f 251/1/3 248/1/3 247/1/3
f 252/1/3 248/1/3 251/1/3
f 253/1/3 250/1/3 249/1/3
f 254/1/3 250/1/3 253/1/3
f 257/1/3 256/1/3 255/1/3
f 258/1/3 256/1/3 257/1/3
f 267/1/3 260/1/3 259/1/3
f 268/1/3 260/1/3 267/1/3
f 269/1/3 267/1/3 259/1/3
f 270/1/3 267/1/3 269/1/3
f 271/1/3 260/1/3 268/1/3
f 272/1/3 260/1/3 271/1/3
f 273/1/3 262/1/3 261/1/3
f 274/1/3 262/1/3 273/1/3
f 275/1/3 264/1/3 263/1/3
f 276/1/3 264/1/3 275/1/3
f 277/1/3 266/1/3 265/1/3
f 278/1/3 266/1/3 277/1/3
f 281/1/3 280/1/3 279/1/3
f 282/1/3 280/1/3 281/1/3
f 293/1/3 284/1/3 283/1/3
f 294/1/3 284/1/3 293/1/3
f 296/1/3 286/1/3 285/1/3
f 297/1/3 286/1/3 296/1/3
f 298/1/3 288/1/3 287/1/3
f 299/1/3 288/1/3 298/1/3
f 300/1/3 290/1/3 289/1/3
f 301/1/3 290/1/3 300/1/3
f 302/1/3 292/1/3 291/1/3
f 303/1/3 292/1/3 302/1/3
f 304/1/3 295/1/3 294/1/3
f 304/1/3 294/1/3 293/1/3
f 305/1/3 295/1/3 304/1/3
f 316/1/3 307/1/3 306/1/3
f 317/1/3 307/1/3 316/1/3
f 318/1/3 309/1/3 308/1/3
f 319/1/3 309/1/3 318/1/3
f 320/1/3 311/1/3 310/1/3
f 321/1/3 311/1/3 320/1/3
f 322/1/3 313/1/3 312/1/3
f 323/1/3 313/1/3 322/1/3
f 324/1/3 315/1/3 314/1/3
f 325/1/3 315/1/3 324/1/3
f 333/1/3 329/1/3 328/1/3
f 334/1/3 329/1/3 333/1/3
f 335/1/3 327/1/3 326/1/3
f 336/1/3 327/1/3 335/1/3
f 339/1/3 331/1/3 330/1/3
f 340/1/3 331/1/3 339/1/3
f 342/1/3 334/1/3 333/1/3
f 342/1/3 337/1/3 336/1/3
f 342/1/3 333/1/3 332/1/3
f 342/1/3 335/1/3 334/1/3
f 342/1/3 336/1/3 335/1/3
f 343/1/3 337/1/3 342/1/3
f 344/1/3 341/1/3 340/1/3
f 344/1/3 340/1/3 339/1/3
f 344/1/3 339/1/3 338/1/3
f 345/1/3 341/1/3 344/1/3
f 348/1/3 347/1/3 346/1/3
f 349/1/3 347/1/3 348/1/3
f 360/1/3 351/1/3 350/1/3
f 361/1/3 351/1/3 360/1/3
f 362/1/3 353/1/3 352/1/3
f 363/1/3 353/1/3 362/1/3
f 364/1/3 355/1/3 354/1/3
f 365/1/3 355/1/3 364/1/3
f 366/1/3 357/1/3 356/1/3
f 367/1/3 357/1/3 366/1/3
f 368/1/3 359/1/3 358/1/3
f 369/1/3 359/1/3 368/1/3
f 375/1/3 371/1/3 370/1/3
f 376/1/3 371/1/3 375/1/3
f 377/1/3 373/1/3 372/1/3
f 378/1/3 373/1/3 377/1/3
f 384/1/3 376/1/3 375/1/3
f 384/1/3 375/1/3 374/1/3
f 384/1/3 377/1/3 376/1/3
f 384/1/3 379/1/3 378/1/3
f 384/1/3 378/1/3 377/1/3
f 385/1/3 379/1/3 384/1/3
f 386/1/3 379/1/3 385/1/3
f 387/1/3 381/1/3 380/1/3
f 388/1/3 384/1/3 374/1/3
f 389/1/3 384/1/3 388/1/3
f 390/1/3 386/1/3 385/1/3
f 390/1/3 387/1/3 386/1/3
f 391/1/3 381/1/3 387/1/3
f 391/1/3 387/1/3 390/1/3
f 392/1/3 383/1/3 382/1/3
f 393/1/3 383/1/3 392/1/3
f 400/1/3 395/1/3 394/1/3
f 401/1/3 395/1/3 400/1/3
f 403/1/3 399/1/3 398/1/3
f 404/1/3 399/1/3 403/1/3
f 409/1/3 397/1/3 396/1/3
f 410/1/3 397/1/3 409/1/3
f 412/1/3 405/1/3 404/1/3
f 412/1/3 403/1/3 402/1/3
f 412/1/3 404/1/3 403/1/3
f 413/1/3 407/1/3 406/1/3
f 414/1/3 412/1/3 402/1/3
f 414/1/3 413/1/3 412/1/3
f 415/1/3 407/1/3 413/1/3
f 415/1/3 413/1/3 414/1/3
f 416/1/3 411/1/3 410/1/3
f 416/1/3 410/1/3 409/1/3
f 416/1/3 409/1/3 408/1/3
f 417/1/3 411/1/3 416/1/3
f 420/1/3 419/1/3 418/1/3
f 421/1/3 419/1/3 420/1/3
f 428/1/3 423/1/3 422/1/3
f 429/1/3 423/1/3 428/1/3
f 430/1/3 425/1/3 424/1/3
f 431/1/3 425/1/3 430/1/3
f 432/1/3 427/1/3 426/1/3
f 433/1/3 427/1/3 432/1/3
f 436/1/3 435/1/3 434/1/3
f 437/1/3 435/1/3 436/1/3
f 440/1/3 439/1/3 438/1/3
f 441/1/3 439/1/3 440/1/3
f 444/1/3 443/1/3 442/1/3
f 445/1/3 443/1/3 444/1/3
f 448/1/3 447/1/3 446/1/3
f 449/1/3 447/1/3 448/1/3
f 450/1/4 451/1/4 452/1/4
f 452/1/4 451/1/4 453/1/4
f 454/1/4 455/1/4 456/1/4
f 456/1/4 455/1/4 457/1/4
f 458/1/4 459/1/4 460/1/4
f 460/1/4 459/1/4 461/1/4
f 462/1/4 463/1/4 464/1/4
f 464/1/4 463/1/4 465/1/4
f 466/1/4 467/1/4 468/1/4
f 468/1/4 467/1/4 469/1/4
f 470/1/4 471/1/4 472/1/4
f 472/1/4 471/1/4 473/1/4
f 474/1/4 475/1/4 476/1/4
f 476/1/4 475/1/4 477/1/4
f 478/1/4 479/1/4 480/1/4
f 480/1/4 479/1/4 481/1/4
f 482/1/4 483/1/4 484/1/4
f 484/1/4 483/1/4 485/1/4
f 488/1/5 487/1/5 486/1/5
f 490/1/5 489/1/5 488/1/5
f 492/1/5 491/1/5 490/1/5
f 494/1/5 493/1/5 492/1/5
f 496/1/5 495/1/5 494/1/5
f 498/1/5 497/1/5 496/1/5
f 500/1/5 499/1/5 498/1/5
f 502/1/5 501/1/5 500/1/5
f 504/1/5 503/1/5 502/1/5
f 506/1/5 488/1/5 486/1/5
f 506/1/5 505/1/5 504/1/5
f 506/1/5 504/1/5 502/1/5
f 506/1/5 502/1/5 500/1/5
f 506/1/5 500/1/5 498/1/5
f 506/1/5 498/1/5 496/1/5
f 506/1/5 496/1/5 494/1/5
f 506/1/5 494/1/5 492/1/5
f 506/1/5 492/1/5 490/1/5
f 506/1/5 490/1/5 488/1/5
f 507/1/5 505/1/5 506/1/5
f 510/1/5 509/1/5 508/1/5
f 511/1/5 509/1/5 510/1/5
f 514/1/5 513/1/5 512/1/5
f 516/1/5 515/1/5 514/1/5
f 518/1/5 514/1/5 512/1/5
f 518/1/5 517/1/5 516/1/5
f 518/1/5 516/1/5 514/1/5
f 519/1/5 517/1/5 518/1/5
f 522/1/5 521/1/5 520/1/5
f 523/1/5 521/1/5 522/1/5
f 526/1/5 525/1/5 524/1/5
f 527/1/5 525/1/5 526/1/5
f 530/1/5 529/1/5 528/1/5
f 531/1/5 529/1/5 530/1/5
f 534/1/5 533/1/5 532/1/5
f 536/1/5 535/1/5 534/1/5
f 538/1/5 537/1/5 536/1/5
f 540/1/5 534/1/5 532/1/5
f 540/1/5 539/1/5 538/1/5
f 540/1/5 538/1/5 536/1/5
f 540/1/5 536/1/5 534/1/5
f 541/1/5 539/1/5 540/1/5
f 544/1/5 543/1/5 542/1/5
f 546/1/5 545/1/5 544/1/5
f 548/1/5 547/1/5 546/1/5
f 550/1/5 549/1/5 548/1/5
f 552/1/5 551/1/5 550/1/5
f 554/1/5 553/1/5 552/1/5
f 556/1/5 544/1/5 542/1/5
f 556/1/5 555/1/5 554/1/5
f 556/1/5 554/1/5 552/1/5
f 556/1/5 552/1/5 550/1/5
f 556/1/5 550/1/5 548/1/5
f 556/1/5 548/1/5 546/1/5
f 556/1/5 546/1/5 544/1/5
f 557/1/5 555/1/5 556/1/5
f 560/1/5 559/1/5 558/1/5
f 561/1/5 559/1/5 560/1/5
f 564/1/5 563/1/5 562/1/5
f 566/1/5 564/1/5 562/1/5
f 566/1/5 565/1/5 564/1/5
f 567/1/5 565/1/5 566/1/5
f 570/1/5 569/1/5 568/1/5
f 571/1/5 569/1/5 570/1/5
f 574/1/5 573/1/5 572/1/5
f 575/1/5 573/1/5 574/1/5
f 578/1/5 577/1/5 576/1/5
f 580/1/5 578/1/5 576/1/5
f 580/1/5 579/1/5 578/1/5
f 581/1/5 579/1/5 580/1/5
f 582/1/6 583/1/6 584/1/6
f 584/1/6 583/1/6 585/1/6
f 586/1/6 587/1/6 588/1/6
f 588/1/6 589/1/6 590/1/6
f 586/1/6 588/1/6 592/1/6
f 590/1/6 591/1/6 592/1/6
f 588/1/6 590/1/6 592/1/6
f 592/1/6 591/1/6 593/1/6
f 594/1/6 595/1/6 596/1/6
f 596/1/6 595/1/6 597/1/6
f 598/1/6 599/1/6 600/1/6
f 600/1/6 599/1/6 601/1/6
f 602/1/6 603/1/6 604/1/6
f 604/1/6 603/1/6 605/1/6
f 606/1/6 607/1/6 608/1/6
f 608/1/6 609/1/6 610/1/6
f 610/1/6 611/1/6 612/1/6
f 606/1/6 608/1/6 614/1/6
f 612/1/6 613/1/6 614/1/6
f 610/1/6 612/1/6 614/1/6
f 608/1/6 610/1/6 614/1/6
f 614/1/6 613/1/6 615/1/6
f 616/1/6 617/1/6 618/1/6
f 618/1/6 619/1/6 620/1/6
f 620/1/6 621/1/6 622/1/6
f 622/1/6 623/1/6 624/1/6
f 624/1/6 625/1/6 626/1/6
f 626/1/6 627/1/6 628/1/6
f 616/1/6 618/1/6 630/1/6
f 628/1/6 629/1/6 630/1/6
f 626/1/6 628/1/6 630/1/6
f 624/1/6 626/1/6 630/1/6
f 622/1/6 624/1/6 630/1/6
f 620/1/6 622/1/6 630/1/6
f 618/1/6 620/1/6 630/1/6
f 630/1/6 629/1/6 631/1/6
f 632/1/6 633/1/6 634/1/6
f 634/1/6 633/1/6 635/1/6
f 636/1/6 637/1/6 638/1/6
f 636/1/6 638/1/6 640/1/6
f 638/1/6 639/1/6 640/1/6
f 640/1/6 639/1/6 641/1/6
f 642/1/6 643/1/6 644/1/6
f 644/1/6 643/1/6 645/1/6
f 646/1/6 647/1/6 648/1/6
f 648/1/6 647/1/6 649/1/6
f 650/1/6 651/1/6 652/1/6
f 650/1/6 652/1/6 654/1/6
f 652/1/6 653/1/6 654/1/6
f 654/1/6 653/1/6 655/1/6
f 656/1/6 657/1/6 658/1/6
f 658/1/6 657/1/6 659/1/6
f 660/1/6 661/1/6 662/1/6
f 662/1/6 661/1/6 663/1/6
f 666/1/6 667/1/6 668/1/6
f 666/1/6 668/1/6 672/1/6
f 668/1/6 669/1/6 672/1/6
f 672/1/6 669/1/6 673/1/6
f 670/1/6 671/1/6 674/1/6
f 674/1/6 671/1/6 675/1/6
f 666/1/6 672/1/6 678/1/6
f 678/1/6 672/1/6 679/1/6
f 664/1/6 665/1/6 680/1/6
f 680/1/6 665/1/6 681/1/6
f 676/1/6 677/1/6 682/1/6
f 682/1/6 677/1/6 683/1/6
f 684/1/6 685/1/6 686/1/6
f 686/1/6 685/1/6 687/1/6
f 687/1/6 685/1/6 688/1/6
f 684/1/6 686/1/6 690/1/6
f 688/1/6 689/1/6 691/1/6
f 687/1/6 688/1/6 691/1/6
f 691/1/6 689/1/6 692/1/6
f 690/1/6 691/1/6 694/1/6
f 692/1/6 693/1/6 694/1/6
f 691/1/6 692/1/6 694/1/6
f 684/1/6 690/1/6 696/1/6
f 694/1/6 695/1/6 696/1/6
f 690/1/6 694/1/6 696/1/6
f 696/1/6 695/1/6 697/1/6
f 697/1/6 695/1/6 698/1/6
f 698/1/6 699/1/6 700/1/6
f 697/1/6 698/1/6 700/1/6
f 684/1/6 696/1/6 702/1/6
f 700/1/6 701/1/6 703/1/6
f 697/1/6 700/1/6 703/1/6
f 703/1/6 701/1/6 704/1/6
f 684/1/6 702/1/6 706/1/6
f 704/1/6 705/1/6 706/1/6
f 703/1/6 704/1/6 706/1/6
f 702/1/6 703/1/6 706/1/6
f 706/1/6 705/1/6 707/1/6
f 707/1/6 705/1/6 708/1/6
f 708/1/6 705/1/6 709/1/6
f 709/1/6 705/1/6 710/1/6
f 710/1/6 711/1/6 712/1/6
f 709/1/6 710/1/6 712/1/6
f 712/1/6 711/1/6 713/1/6
f 713/1/6 711/1/6 715/1/6
f 715/1/6 711/1/6 716/1/6
f 714/1/6 715/1/6 718/1/6
f 716/1/6 717/1/6 718/1/6
f 715/1/6 716/1/6 718/1/6
f 718/1/6 717/1/6 719/1/6
f 719/1/6 717/1/6 720/1/6
f 707/1/6 708/1/6 722/1/6
f 714/1/6 718/1/6 723/1/6
f 707/1/6 722/1/6 725/1/6
f 722/1/6 723/1/6 725/1/6
f 723/1/6 718/1/6 726/1/6
f 724/1/6 725/1/6 726/1/6
f 725/1/6 723/1/6 726/1/6
f 720/1/6 721/1/6 727/1/6
f 719/1/6 720/1/6 727/1/6
f 724/1/6 726/1/6 728/1/6
f 726/1/6 727/1/6 728/1/6
f 727/1/6 721/1/6 729/1/6
f 728/1/6 727/1/6 729/1/6
