# MagicaVoxel @ ephtracy

# material
mtllib CaveGroundFive.mtl
usemtl palette

# normals
vn -1 0 0
vn 1 0 0
vn 0 0 1
vn 0 0 -1
vn 0 -1 0
vn 0 1 0

# texcoords
vt 0.994141 0.5

# verts
v -63 0 63
v -63 0 -63
v -63 64 32
v -63 64 16
v -63 80 16
v -63 80 -0
v -63 96 -0
v -63 96 -32
v -63 112 48
v -63 112 32
v -63 112 -32
v -63 112 -63
v -63 126 63
v -63 126 48
v -48 64 32
v -48 64 16
v -48 80 16
v -48 80 -0
v -48 96 32
v -48 96 -0
v -48 112 48
v -48 112 32
v -48 112 -32
v -48 112 -48
v -48 126 48
v -48 126 32
v -48 126 -32
v -48 126 -48
v -16 64 -16
v -16 64 -32
v -16 80 48
v -16 80 32
v -16 80 -16
v -16 80 -32
v -16 96 48
v -16 96 32
v -16 96 -48
v -16 96 -63
v -16 112 -48
v -16 112 -63
v 0 112 -48
v 0 112 -63
v 0 126 -48
v 0 126 -63
v 16 48 16
v 16 48 -0
v 16 48 -16
v 16 48 -32
v 16 64 16
v 16 64 -0
v 16 96 -16
v 16 96 -32
v 32 48 32
v 32 48 16
v 32 48 -0
v 32 48 -16
v 32 64 16
v 32 64 -0
v 32 80 48
v 32 80 32
v 32 96 32
v 32 96 -16
v 32 112 63
v 32 112 48
v 32 112 32
v 32 112 -48
v 32 112 -63
v 32 126 63
v 32 126 48
v 32 126 -48
v 32 126 -63
v 48 96 32
v 48 96 -32
v 48 112 32
v 48 112 16
v 48 112 -32
v 48 112 -48
v 48 126 32
v 48 126 16
v 48 126 -32
v 48 126 -48
v -48 64 -0
v -48 64 -32
v -48 96 -0
v -48 96 -32
v -32 80 48
v -32 80 32
v -32 96 32
v -32 96 -48
v -32 96 -63
v -32 112 -32
v -32 112 -48
v -32 112 -63
v -32 126 48
v -32 126 32
v -32 126 -32
v -32 126 -48
v -16 48 32
v -16 48 -16
v -16 64 -0
v -16 64 -16
v -16 96 32
v -16 96 -0
v -16 112 63
v -16 112 48
v -16 126 63
v -16 126 48
v 0 48 -16
v 0 48 -32
v 0 80 -16
v 0 80 -32
v 16 80 48
v 16 80 32
v 16 96 48
v 16 96 32
v 16 112 -48
v 16 112 -63
v 16 126 -48
v 16 126 -63
v 63 0 63
v 63 0 -63
v 63 112 48
v 63 112 32
v 63 112 16
v 63 112 -32
v 63 126 63
v 63 126 48
v 63 126 32
v 63 126 16
v 63 126 -32
v 63 126 -63
v -63 0 63
v -63 126 63
v -16 112 63
v -16 126 63
v 32 112 63
v 32 126 63
v 63 0 63
v 63 126 63
v -32 80 32
v -32 96 32
v -16 80 32
v -16 96 32
v 48 112 32
v 48 126 32
v 63 112 32
v 63 126 32
v -63 64 16
v -63 80 16
v -48 64 16
v -48 80 16
v 16 48 16
v 16 64 16
v 32 48 16
v 32 64 16
v -63 80 -0
v -63 96 -0
v -48 80 -0
v -48 96 -0
v -16 48 -16
v -16 64 -16
v -16 80 -16
v 0 48 -16
v 0 80 -16
v 16 48 -16
v 16 96 -16
v 32 48 -16
v 32 96 -16
v -63 96 -32
v -63 112 -32
v -48 64 -32
v -48 96 -32
v -48 112 -32
v -48 126 -32
v -32 112 -32
v -32 126 -32
v -16 64 -32
v -16 80 -32
v 0 48 -32
v 0 80 -32
v 16 48 -32
v 16 96 -32
v 48 96 -32
v 48 112 -32
v 48 126 -32
v 63 112 -32
v 63 126 -32
v 0 112 -48
v 0 126 -48
v 16 112 -48
v 16 126 -48
v 32 112 -48
v 32 126 -48
v 48 112 -48
v 48 126 -48
v -63 112 48
v -63 126 48
v -48 112 48
v -48 126 48
v -32 80 48
v -32 126 48
v -16 80 48
v -16 96 48
v -16 112 48
v -16 126 48
v 16 80 48
v 16 96 48
v 32 80 48
v 32 112 48
v 32 126 48
v 63 112 48
v 63 126 48
v -63 64 32
v -63 112 32
v -48 64 32
v -48 96 32
v -48 112 32
v -48 126 32
v -32 96 32
v -32 126 32
v -16 48 32
v -16 96 32
v 16 80 32
v 16 96 32
v 32 48 32
v 32 80 32
v 32 96 32
v 32 112 32
v 48 96 32
v 48 112 32
v 48 112 16
v 48 126 16
v 63 112 16
v 63 126 16
v -48 64 -0
v -48 96 -0
v -16 64 -0
v -16 96 -0
v 16 48 -0
v 16 64 -0
v 32 48 -0
v 32 64 -0
v -48 112 -48
v -48 126 -48
v -32 96 -48
v -32 112 -48
v -32 126 -48
v -16 96 -48
v -16 112 -48
v -63 0 -63
v -63 112 -63
v -32 96 -63
v -32 112 -63
v -16 96 -63
v -16 112 -63
v 0 112 -63
v 0 126 -63
v 16 112 -63
v 16 126 -63
v 32 112 -63
v 32 126 -63
v 63 0 -63
v 63 126 -63
v -63 0 63
v 63 0 63
v -63 0 -63
v 63 0 -63
v -16 48 32
v 32 48 32
v 16 48 16
v 32 48 16
v 16 48 -0
v 32 48 -0
v -16 48 -16
v 0 48 -16
v 16 48 -16
v 32 48 -16
v 0 48 -32
v 16 48 -32
v -63 64 32
v -48 64 32
v -63 64 16
v -48 64 16
v 16 64 16
v 32 64 16
v -48 64 -0
v -16 64 -0
v 16 64 -0
v 32 64 -0
v -16 64 -16
v -48 64 -32
v -16 64 -32
v -32 80 48
v -16 80 48
v 16 80 48
v 32 80 48
v -32 80 32
v -16 80 32
v 16 80 32
v 32 80 32
v -63 80 16
v -48 80 16
v -63 80 -0
v -48 80 -0
v -16 80 -16
v 0 80 -16
v -16 80 -32
v 0 80 -32
v -16 96 48
v 16 96 48
v -48 96 32
v -32 96 32
v -16 96 32
v 16 96 32
v 32 96 32
v 48 96 32
v -63 96 -0
v -48 96 -0
v -16 96 -0
v 16 96 -16
v 32 96 -16
v -63 96 -32
v -48 96 -32
v 16 96 -32
v 48 96 -32
v -32 96 -48
v -16 96 -48
v -32 96 -63
v -16 96 -63
v -16 112 63
v 32 112 63
v -63 112 48
v -48 112 48
v -16 112 48
v 32 112 48
v 63 112 48
v -63 112 32
v -48 112 32
v 32 112 32
v 48 112 32
v 63 112 32
v 48 112 16
v 63 112 16
v -63 112 -32
v -48 112 -32
v -32 112 -32
v 48 112 -32
v 63 112 -32
v -48 112 -48
v -32 112 -48
v -16 112 -48
v 0 112 -48
v 16 112 -48
v 32 112 -48
v 48 112 -48
v -63 112 -63
v -32 112 -63
v -16 112 -63
v 0 112 -63
v 16 112 -63
v 32 112 -63
v -63 126 63
v -16 126 63
v 32 126 63
v 63 126 63
v -63 126 48
v -48 126 48
v -32 126 48
v -16 126 48
v 32 126 48
v 63 126 48
v -48 126 32
v -32 126 32
v 48 126 32
v 63 126 32
v 48 126 16
v 63 126 16
v -48 126 -32
v -32 126 -32
v 48 126 -32
v 63 126 -32
v -48 126 -48
v -32 126 -48
v 0 126 -48
v 16 126 -48
v 32 126 -48
v 48 126 -48
v 0 126 -63
v 16 126 -63
v 32 126 -63
v 63 126 -63

# faces
f 3/1/1 2/1/1 1/1/1
f 4/1/1 2/1/1 3/1/1
f 5/1/1 2/1/1 4/1/1
f 6/1/1 2/1/1 5/1/1
f 7/1/1 2/1/1 6/1/1
f 8/1/1 2/1/1 7/1/1
f 9/1/1 3/1/1 1/1/1
f 10/1/1 3/1/1 9/1/1
f 11/1/1 2/1/1 8/1/1
f 12/1/1 2/1/1 11/1/1
f 13/1/1 9/1/1 1/1/1
f 14/1/1 9/1/1 13/1/1
f 17/1/1 16/1/1 15/1/1
f 19/1/1 17/1/1 15/1/1
f 19/1/1 18/1/1 17/1/1
f 20/1/1 18/1/1 19/1/1
f 25/1/1 22/1/1 21/1/1
f 26/1/1 22/1/1 25/1/1
f 27/1/1 24/1/1 23/1/1
f 28/1/1 24/1/1 27/1/1
f 33/1/1 30/1/1 29/1/1
f 34/1/1 30/1/1 33/1/1
f 35/1/1 32/1/1 31/1/1
f 36/1/1 32/1/1 35/1/1
f 39/1/1 38/1/1 37/1/1
f 40/1/1 38/1/1 39/1/1
f 43/1/1 42/1/1 41/1/1
f 44/1/1 42/1/1 43/1/1
f 49/1/1 46/1/1 45/1/1
f 50/1/1 46/1/1 49/1/1
f 51/1/1 48/1/1 47/1/1
f 52/1/1 48/1/1 51/1/1
f 57/1/1 54/1/1 53/1/1
f 58/1/1 56/1/1 55/1/1
f 60/1/1 57/1/1 53/1/1
f 60/1/1 58/1/1 57/1/1
f 61/1/1 58/1/1 60/1/1
f 61/1/1 60/1/1 59/1/1
f 62/1/1 56/1/1 58/1/1
f 62/1/1 58/1/1 61/1/1
f 64/1/1 61/1/1 59/1/1
f 65/1/1 61/1/1 64/1/1
f 68/1/1 64/1/1 63/1/1
f 69/1/1 64/1/1 68/1/1
f 70/1/1 67/1/1 66/1/1
f 71/1/1 67/1/1 70/1/1
f 74/1/1 73/1/1 72/1/1
f 75/1/1 73/1/1 74/1/1
f 76/1/1 73/1/1 75/1/1
f 78/1/1 75/1/1 74/1/1
f 79/1/1 75/1/1 78/1/1
f 80/1/1 77/1/1 76/1/1
f 81/1/1 77/1/1 80/1/1
f 82/1/2 83/1/2 84/1/2
f 84/1/2 83/1/2 85/1/2
f 86/1/2 87/1/2 88/1/2
f 89/1/2 90/1/2 92/1/2
f 92/1/2 90/1/2 93/1/2
f 86/1/2 88/1/2 94/1/2
f 94/1/2 88/1/2 95/1/2
f 91/1/2 92/1/2 96/1/2
f 96/1/2 92/1/2 97/1/2
f 98/1/2 99/1/2 100/1/2
f 100/1/2 99/1/2 101/1/2
f 98/1/2 100/1/2 102/1/2
f 102/1/2 100/1/2 103/1/2
f 104/1/2 105/1/2 106/1/2
f 106/1/2 105/1/2 107/1/2
f 108/1/2 109/1/2 110/1/2
f 110/1/2 109/1/2 111/1/2
f 112/1/2 113/1/2 114/1/2
f 114/1/2 113/1/2 115/1/2
f 116/1/2 117/1/2 118/1/2
f 118/1/2 117/1/2 119/1/2
f 120/1/2 121/1/2 122/1/2
f 122/1/2 121/1/2 123/1/2
f 123/1/2 121/1/2 124/1/2
f 124/1/2 121/1/2 125/1/2
f 120/1/2 122/1/2 126/1/2
f 126/1/2 122/1/2 127/1/2
f 123/1/2 124/1/2 128/1/2
f 128/1/2 124/1/2 129/1/2
f 125/1/2 121/1/2 130/1/2
f 130/1/2 121/1/2 131/1/2
f 134/1/3 133/1/3 132/1/3
f 135/1/3 133/1/3 134/1/3
f 136/1/3 134/1/3 132/1/3
f 138/1/3 136/1/3 132/1/3
f 138/1/3 137/1/3 136/1/3
f 139/1/3 137/1/3 138/1/3
f 142/1/3 141/1/3 140/1/3
f 143/1/3 141/1/3 142/1/3
f 146/1/3 145/1/3 144/1/3
f 147/1/3 145/1/3 146/1/3
f 150/1/3 149/1/3 148/1/3
f 151/1/3 149/1/3 150/1/3
f 154/1/3 153/1/3 152/1/3
f 155/1/3 153/1/3 154/1/3
f 158/1/3 157/1/3 156/1/3
f 159/1/3 157/1/3 158/1/3
f 163/1/3 161/1/3 160/1/3
f 163/1/3 162/1/3 161/1/3
f 164/1/3 162/1/3 163/1/3
f 167/1/3 166/1/3 165/1/3
f 168/1/3 166/1/3 167/1/3
f 172/1/3 170/1/3 169/1/3
f 173/1/3 170/1/3 172/1/3
f 175/1/3 172/1/3 171/1/3
f 175/1/3 174/1/3 173/1/3
f 175/1/3 173/1/3 172/1/3
f 176/1/3 174/1/3 175/1/3
f 177/1/3 175/1/3 171/1/3
f 178/1/3 175/1/3 177/1/3
f 180/1/3 175/1/3 178/1/3
f 181/1/3 180/1/3 179/1/3
f 182/1/3 175/1/3 180/1/3
f 182/1/3 180/1/3 181/1/3
f 183/1/3 175/1/3 182/1/3
f 184/1/3 175/1/3 183/1/3
f 186/1/3 185/1/3 184/1/3
f 187/1/3 185/1/3 186/1/3
f 190/1/3 189/1/3 188/1/3
f 191/1/3 189/1/3 190/1/3
f 194/1/3 193/1/3 192/1/3
f 195/1/3 193/1/3 194/1/3
f 196/1/4 197/1/4 198/1/4
f 198/1/4 197/1/4 199/1/4
f 200/1/4 201/1/4 202/1/4
f 202/1/4 201/1/4 203/1/4
f 203/1/4 201/1/4 204/1/4
f 204/1/4 201/1/4 205/1/4
f 203/1/4 204/1/4 207/1/4
f 206/1/4 207/1/4 208/1/4
f 207/1/4 204/1/4 209/1/4
f 208/1/4 207/1/4 209/1/4
f 209/1/4 210/1/4 211/1/4
f 211/1/4 210/1/4 212/1/4
f 213/1/4 214/1/4 215/1/4
f 215/1/4 214/1/4 216/1/4
f 216/1/4 214/1/4 217/1/4
f 217/1/4 218/1/4 219/1/4
f 216/1/4 217/1/4 219/1/4
f 219/1/4 218/1/4 220/1/4
f 221/1/4 222/1/4 223/1/4
f 223/1/4 222/1/4 224/1/4
f 221/1/4 223/1/4 225/1/4
f 225/1/4 223/1/4 226/1/4
f 227/1/4 228/1/4 229/1/4
f 229/1/4 228/1/4 230/1/4
f 231/1/4 232/1/4 233/1/4
f 233/1/4 232/1/4 234/1/4
f 235/1/4 236/1/4 237/1/4
f 237/1/4 236/1/4 238/1/4
f 239/1/4 240/1/4 241/1/4
f 241/1/4 240/1/4 242/1/4
f 243/1/4 244/1/4 246/1/4
f 246/1/4 244/1/4 247/1/4
f 245/1/4 246/1/4 248/1/4
f 248/1/4 246/1/4 249/1/4
f 250/1/4 251/1/4 252/1/4
f 252/1/4 251/1/4 253/1/4
f 250/1/4 252/1/4 254/1/4
f 254/1/4 255/1/4 256/1/4
f 254/1/4 256/1/4 258/1/4
f 256/1/4 257/1/4 258/1/4
f 258/1/4 257/1/4 259/1/4
f 254/1/4 258/1/4 260/1/4
f 250/1/4 254/1/4 262/1/4
f 260/1/4 261/1/4 262/1/4
f 254/1/4 260/1/4 262/1/4
f 262/1/4 261/1/4 263/1/4
f 266/1/5 265/1/5 264/1/5
f 267/1/5 265/1/5 266/1/5
f 268/1/6 269/1/6 270/1/6
f 270/1/6 269/1/6 271/1/6
f 268/1/6 270/1/6 272/1/6
f 268/1/6 272/1/6 274/1/6
f 272/1/6 273/1/6 274/1/6
f 274/1/6 273/1/6 275/1/6
f 275/1/6 273/1/6 276/1/6
f 276/1/6 273/1/6 277/1/6
f 275/1/6 276/1/6 278/1/6
f 278/1/6 276/1/6 279/1/6
f 280/1/6 281/1/6 282/1/6
f 282/1/6 281/1/6 283/1/6
f 284/1/6 285/1/6 288/1/6
f 288/1/6 285/1/6 289/1/6
f 286/1/6 287/1/6 290/1/6
f 286/1/6 290/1/6 291/1/6
f 291/1/6 290/1/6 292/1/6
f 293/1/6 294/1/6 297/1/6
f 297/1/6 294/1/6 298/1/6
f 295/1/6 296/1/6 299/1/6
f 299/1/6 296/1/6 300/1/6
f 301/1/6 302/1/6 303/1/6
f 303/1/6 302/1/6 304/1/6
f 305/1/6 306/1/6 307/1/6
f 307/1/6 306/1/6 308/1/6
f 309/1/6 310/1/6 313/1/6
f 313/1/6 310/1/6 314/1/6
f 311/1/6 312/1/6 318/1/6
f 312/1/6 313/1/6 318/1/6
f 318/1/6 313/1/6 319/1/6
f 315/1/6 316/1/6 321/1/6
f 317/1/6 318/1/6 322/1/6
f 322/1/6 318/1/6 323/1/6
f 320/1/6 321/1/6 324/1/6
f 321/1/6 316/1/6 325/1/6
f 324/1/6 321/1/6 325/1/6
f 326/1/6 327/1/6 328/1/6
f 328/1/6 327/1/6 329/1/6
f 330/1/6 331/1/6 334/1/6
f 334/1/6 331/1/6 335/1/6
f 332/1/6 333/1/6 337/1/6
f 337/1/6 333/1/6 338/1/6
f 335/1/6 336/1/6 339/1/6
f 339/1/6 336/1/6 340/1/6
f 340/1/6 336/1/6 341/1/6
f 342/1/6 343/1/6 347/1/6
f 347/1/6 343/1/6 348/1/6
f 344/1/6 345/1/6 349/1/6
f 346/1/6 347/1/6 350/1/6
f 350/1/6 347/1/6 351/1/6
f 351/1/6 347/1/6 352/1/6
f 352/1/6 347/1/6 353/1/6
f 353/1/6 347/1/6 354/1/6
f 354/1/6 347/1/6 355/1/6
f 344/1/6 349/1/6 356/1/6
f 349/1/6 350/1/6 356/1/6
f 356/1/6 350/1/6 357/1/6
f 351/1/6 352/1/6 358/1/6
f 358/1/6 352/1/6 359/1/6
f 353/1/6 354/1/6 360/1/6
f 360/1/6 354/1/6 361/1/6
f 362/1/6 363/1/6 366/1/6
f 366/1/6 363/1/6 367/1/6
f 367/1/6 363/1/6 368/1/6
f 368/1/6 363/1/6 369/1/6
f 364/1/6 365/1/6 370/1/6
f 370/1/6 365/1/6 371/1/6
f 367/1/6 368/1/6 372/1/6
f 372/1/6 368/1/6 373/1/6
f 374/1/6 375/1/6 376/1/6
f 376/1/6 375/1/6 377/1/6
f 378/1/6 379/1/6 382/1/6
f 382/1/6 379/1/6 383/1/6
f 380/1/6 381/1/6 387/1/6
f 384/1/6 385/1/6 388/1/6
f 388/1/6 385/1/6 389/1/6
f 386/1/6 387/1/6 390/1/6
f 387/1/6 381/1/6 391/1/6
f 390/1/6 387/1/6 391/1/6
