# MagicaVoxel @ ephtracy

# material
mtllib ChasmWallCorner.mtl
usemtl palette

# normals
vn -1 0 0
vn 1 0 0
vn 0 0 1
vn 0 0 -1
vn 0 -1 0
vn 0 1 0

# texcoords
vt 0.990234 0.5

# verts
v -63 0 -40
v -63 0 -63
v -63 80 -40
v -63 80 -48
v -63 112 -40
v -63 112 -48
v -63 126 -40
v -63 126 -63
v -32 80 -40
v -32 80 -48
v -32 112 -40
v -32 112 -48
v 0 40 -40
v 0 40 -48
v 0 56 -40
v 0 56 -48
v 0 96 -40
v 0 96 -48
v 0 112 -40
v 0 112 -48
v 16 72 -40
v 16 72 -56
v 16 80 -48
v 16 80 -56
v 16 88 -40
v 16 88 -48
v 24 0 -40
v 24 0 -48
v 24 40 -40
v 24 40 -48
v 24 120 -40
v 24 120 -48
v 24 126 -40
v 24 126 -48
v 40 0 63
v 40 0 -40
v 40 8 40
v 40 8 -8
v 40 24 -8
v 40 24 -24
v 40 40 40
v 40 40 16
v 40 48 -32
v 40 48 -40
v 40 56 56
v 40 56 16
v 40 56 -0
v 40 56 -24
v 40 64 -24
v 40 64 -32
v 40 72 -24
v 40 72 -40
v 40 80 56
v 40 80 -0
v 40 96 24
v 40 96 -32
v 40 120 24
v 40 120 -32
v 40 126 63
v 40 126 -40
v 48 8 40
v 48 8 -8
v 48 24 16
v 48 24 -8
v 48 40 40
v 48 40 16
v 48 48 -32
v 48 48 -48
v 48 56 56
v 48 56 32
v 48 56 8
v 48 56 -0
v 48 64 -24
v 48 64 -32
v 48 72 32
v 48 72 8
v 48 72 -24
v 48 72 -48
v 48 80 56
v 48 80 -0
v 48 96 24
v 48 96 -32
v 48 120 24
v 48 120 -32
v 56 24 16
v 56 24 -24
v 56 56 32
v 56 56 16
v 56 56 8
v 56 56 -24
v 56 72 32
v 56 72 8
v -56 40 -40
v -56 40 -48
v -56 56 -40
v -56 56 -48
v -24 0 -40
v -24 0 -48
v -24 40 -40
v -24 40 -48
v -24 120 -40
v -24 120 -48
v -24 126 -40
v -24 126 -48
v -16 72 -40
v -16 72 -56
v -16 80 -40
v -16 80 -56
v -16 96 -40
v -16 96 -48
v -16 112 -40
v -16 112 -48
v 0 80 -40
v 0 80 -48
v 0 88 -40
v 0 88 -48
v 24 48 -40
v 24 48 -48
v 24 72 -40
v 24 72 -48
v 63 0 63
v 63 0 -63
v 63 126 63
v 63 126 -63
v 40 0 63
v 40 126 63
v 63 0 63
v 63 126 63
v 48 56 8
v 48 72 8
v 56 56 8
v 56 72 8
v 40 56 -0
v 40 80 -0
v 48 56 -0
v 48 80 -0
v 40 8 -8
v 40 24 -8
v 48 8 -8
v 48 24 -8
v 40 24 -24
v 40 56 -24
v 56 24 -24
v 56 56 -24
v 40 96 -32
v 40 120 -32
v 48 96 -32
v 48 120 -32
v -63 0 -40
v -63 80 -40
v -63 112 -40
v -63 126 -40
v -56 40 -40
v -56 56 -40
v -32 80 -40
v -32 112 -40
v -24 0 -40
v -24 40 -40
v -24 120 -40
v -24 126 -40
v -16 72 -40
v -16 80 -40
v -16 96 -40
v -16 112 -40
v 0 40 -40
v 0 56 -40
v 0 80 -40
v 0 88 -40
v 0 96 -40
v 0 112 -40
v 16 72 -40
v 16 88 -40
v 24 0 -40
v 24 40 -40
v 24 48 -40
v 24 72 -40
v 24 120 -40
v 24 126 -40
v 40 0 -40
v 40 48 -40
v 40 72 -40
v 40 126 -40
v -63 80 -48
v -63 112 -48
v -56 40 -48
v -56 56 -48
v -32 80 -48
v -32 112 -48
v -24 0 -48
v -24 40 -48
v -24 120 -48
v -24 126 -48
v -16 96 -48
v -16 112 -48
v 0 40 -48
v 0 56 -48
v 0 80 -48
v 0 88 -48
v 0 96 -48
v 0 112 -48
v 16 80 -48
v 16 88 -48
v 24 0 -48
v 24 40 -48
v 24 48 -48
v 24 72 -48
v 24 120 -48
v 24 126 -48
v 48 48 -48
v 48 72 -48
v -16 72 -56
v -16 80 -56
v 16 72 -56
v 16 80 -56
v 40 56 56
v 40 80 56
v 48 56 56
v 48 80 56
v 40 8 40
v 40 40 40
v 48 8 40
v 48 40 40
v 48 56 32
v 48 72 32
v 56 56 32
v 56 72 32
v 40 96 24
v 40 120 24
v 48 96 24
v 48 120 24
v 40 40 16
v 40 56 16
v 48 24 16
v 48 40 16
v 56 24 16
v 56 56 16
v 40 64 -24
v 40 72 -24
v 48 64 -24
v 48 72 -24
v 40 48 -32
v 40 64 -32
v 48 48 -32
v 48 64 -32
v -63 0 -63
v -63 126 -63
v 63 0 -63
v 63 126 -63
v 40 0 63
v 63 0 63
v -63 0 -40
v -24 0 -40
v 24 0 -40
v 40 0 -40
v -24 0 -48
v 24 0 -48
v -63 0 -63
v 63 0 -63
v 40 40 40
v 48 40 40
v 40 40 16
v 48 40 16
v 0 40 -40
v 24 40 -40
v 0 40 -48
v 24 40 -48
v 48 56 8
v 56 56 8
v 40 56 -0
v 48 56 -0
v 40 56 -24
v 56 56 -24
v -56 56 -40
v 0 56 -40
v -56 56 -48
v 0 56 -48
v 48 72 32
v 56 72 32
v 48 72 8
v 56 72 8
v 40 72 -24
v 48 72 -24
v 24 72 -40
v 40 72 -40
v 24 72 -48
v 48 72 -48
v 40 80 56
v 48 80 56
v 40 80 -0
v 48 80 -0
v -16 80 -40
v 0 80 -40
v 0 80 -48
v 16 80 -48
v -16 80 -56
v 16 80 -56
v 0 88 -40
v 16 88 -40
v 0 88 -48
v 16 88 -48
v -63 112 -40
v -32 112 -40
v -16 112 -40
v 0 112 -40
v -63 112 -48
v -32 112 -48
v -16 112 -48
v 0 112 -48
v 40 120 24
v 48 120 24
v 40 120 -32
v 48 120 -32
v 40 8 40
v 48 8 40
v 40 8 -8
v 48 8 -8
v 48 24 16
v 56 24 16
v 40 24 -8
v 48 24 -8
v 40 24 -24
v 56 24 -24
v -56 40 -40
v -24 40 -40
v -56 40 -48
v -24 40 -48
v 40 48 -32
v 48 48 -32
v 24 48 -40
v 40 48 -40
v 24 48 -48
v 48 48 -48
v 40 56 56
v 48 56 56
v 48 56 32
v 56 56 32
v 40 56 16
v 56 56 16
v 40 64 -24
v 48 64 -24
v 40 64 -32
v 48 64 -32
v -16 72 -40
v 16 72 -40
v -16 72 -56
v 16 72 -56
v -63 80 -40
v -32 80 -40
v -63 80 -48
v -32 80 -48
v 40 96 24
v 48 96 24
v 40 96 -32
v 48 96 -32
v -16 96 -40
v 0 96 -40
v -16 96 -48
v 0 96 -48
v -24 120 -40
v 24 120 -40
v -24 120 -48
v 24 120 -48
v 40 126 63
v 63 126 63
v -63 126 -40
v -24 126 -40
v 24 126 -40
v 40 126 -40
v -24 126 -48
v 24 126 -48
v -63 126 -63
v 63 126 -63

# faces
f 3/1/1 2/1/1 1/1/1
f 4/1/1 2/1/1 3/1/1
f 6/1/1 2/1/1 4/1/1
f 7/1/1 6/1/1 5/1/1
f 8/1/1 2/1/1 6/1/1
f 8/1/1 6/1/1 7/1/1
f 11/1/1 10/1/1 9/1/1
f 12/1/1 10/1/1 11/1/1
f 15/1/1 14/1/1 13/1/1
f 16/1/1 14/1/1 15/1/1
f 19/1/1 18/1/1 17/1/1
f 20/1/1 18/1/1 19/1/1
f 23/1/1 22/1/1 21/1/1
f 24/1/1 22/1/1 23/1/1
f 25/1/1 23/1/1 21/1/1
f 26/1/1 23/1/1 25/1/1
f 29/1/1 28/1/1 27/1/1
f 30/1/1 28/1/1 29/1/1
f 33/1/1 32/1/1 31/1/1
f 34/1/1 32/1/1 33/1/1
f 37/1/1 36/1/1 35/1/1
f 38/1/1 36/1/1 37/1/1
f 39/1/1 36/1/1 38/1/1
f 40/1/1 36/1/1 39/1/1
f 41/1/1 37/1/1 35/1/1
f 43/1/1 36/1/1 40/1/1
f 44/1/1 36/1/1 43/1/1
f 45/1/1 42/1/1 41/1/1
f 45/1/1 41/1/1 35/1/1
f 46/1/1 42/1/1 45/1/1
f 48/1/1 43/1/1 40/1/1
f 49/1/1 48/1/1 47/1/1
f 49/1/1 43/1/1 48/1/1
f 50/1/1 43/1/1 49/1/1
f 51/1/1 49/1/1 47/1/1
f 53/1/1 45/1/1 35/1/1
f 54/1/1 52/1/1 51/1/1
f 54/1/1 51/1/1 47/1/1
f 55/1/1 54/1/1 53/1/1
f 56/1/1 52/1/1 54/1/1
f 56/1/1 54/1/1 55/1/1
f 57/1/1 55/1/1 53/1/1
f 58/1/1 52/1/1 56/1/1
f 59/1/1 53/1/1 35/1/1
f 59/1/1 58/1/1 57/1/1
f 59/1/1 57/1/1 53/1/1
f 60/1/1 52/1/1 58/1/1
f 60/1/1 58/1/1 59/1/1
f 63/1/1 62/1/1 61/1/1
f 64/1/1 62/1/1 63/1/1
f 65/1/1 63/1/1 61/1/1
f 66/1/1 63/1/1 65/1/1
f 74/1/1 68/1/1 67/1/1
f 75/1/1 70/1/1 69/1/1
f 76/1/1 72/1/1 71/1/1
f 77/1/1 74/1/1 73/1/1
f 78/1/1 68/1/1 74/1/1
f 78/1/1 74/1/1 77/1/1
f 79/1/1 75/1/1 69/1/1
f 79/1/1 76/1/1 75/1/1
f 80/1/1 72/1/1 76/1/1
f 80/1/1 76/1/1 79/1/1
f 83/1/1 82/1/1 81/1/1
f 84/1/1 82/1/1 83/1/1
f 88/1/1 86/1/1 85/1/1
f 89/1/1 86/1/1 88/1/1
f 90/1/1 86/1/1 89/1/1
f 91/1/1 88/1/1 87/1/1
f 91/1/1 89/1/1 88/1/1
f 92/1/1 89/1/1 91/1/1
f 93/1/2 94/1/2 95/1/2
f 95/1/2 94/1/2 96/1/2
f 97/1/2 98/1/2 99/1/2
f 99/1/2 98/1/2 100/1/2
f 101/1/2 102/1/2 103/1/2
f 103/1/2 102/1/2 104/1/2
f 105/1/2 106/1/2 107/1/2
f 107/1/2 106/1/2 108/1/2
f 109/1/2 110/1/2 111/1/2
f 111/1/2 110/1/2 112/1/2
f 113/1/2 114/1/2 115/1/2
f 115/1/2 114/1/2 116/1/2
f 117/1/2 118/1/2 119/1/2
f 119/1/2 118/1/2 120/1/2
f 121/1/2 122/1/2 123/1/2
f 123/1/2 122/1/2 124/1/2
f 127/1/3 126/1/3 125/1/3
f 128/1/3 126/1/3 127/1/3
f 131/1/3 130/1/3 129/1/3
f 132/1/3 130/1/3 131/1/3
f 135/1/3 134/1/3 133/1/3
f 136/1/3 134/1/3 135/1/3
f 139/1/3 138/1/3 137/1/3
f 140/1/3 138/1/3 139/1/3
f 143/1/3 142/1/3 141/1/3
f 144/1/3 142/1/3 143/1/3
f 147/1/3 146/1/3 145/1/3
f 148/1/3 146/1/3 147/1/3
f 153/1/3 150/1/3 149/1/3
f 154/1/3 150/1/3 153/1/3
f 155/1/3 150/1/3 154/1/3
f 156/1/3 152/1/3 151/1/3
f 157/1/3 153/1/3 149/1/3
f 158/1/3 153/1/3 157/1/3
f 159/1/3 156/1/3 155/1/3
f 159/1/3 152/1/3 156/1/3
f 160/1/3 152/1/3 159/1/3
f 161/1/3 155/1/3 154/1/3
f 161/1/3 159/1/3 155/1/3
f 162/1/3 159/1/3 161/1/3
f 163/1/3 159/1/3 162/1/3
f 164/1/3 159/1/3 163/1/3
f 166/1/3 161/1/3 154/1/3
f 167/1/3 163/1/3 162/1/3
f 168/1/3 163/1/3 167/1/3
f 169/1/3 163/1/3 168/1/3
f 170/1/3 159/1/3 164/1/3
f 171/1/3 166/1/3 165/1/3
f 171/1/3 161/1/3 166/1/3
f 172/1/3 170/1/3 169/1/3
f 172/1/3 169/1/3 168/1/3
f 174/1/3 171/1/3 165/1/3
f 174/1/3 172/1/3 171/1/3
f 175/1/3 172/1/3 174/1/3
f 176/1/3 172/1/3 175/1/3
f 177/1/3 170/1/3 172/1/3
f 177/1/3 172/1/3 176/1/3
f 177/1/3 159/1/3 170/1/3
f 179/1/3 175/1/3 174/1/3
f 179/1/3 174/1/3 173/1/3
f 180/1/3 175/1/3 179/1/3
f 181/1/3 178/1/3 177/1/3
f 181/1/3 177/1/3 176/1/3
f 182/1/3 178/1/3 181/1/3
f 187/1/3 184/1/3 183/1/3
f 188/1/3 184/1/3 187/1/3
f 190/1/3 186/1/3 185/1/3
f 195/1/3 190/1/3 189/1/3
f 195/1/3 186/1/3 190/1/3
f 196/1/3 186/1/3 195/1/3
f 199/1/3 194/1/3 193/1/3
f 200/1/3 194/1/3 199/1/3
f 201/1/3 198/1/3 197/1/3
f 202/1/3 198/1/3 201/1/3
f 203/1/3 195/1/3 189/1/3
f 204/1/3 195/1/3 203/1/3
f 207/1/3 192/1/3 191/1/3
f 208/1/3 192/1/3 207/1/3
f 209/1/3 206/1/3 205/1/3
f 210/1/3 206/1/3 209/1/3
f 213/1/3 212/1/3 211/1/3
f 214/1/3 212/1/3 213/1/3
f 215/1/4 216/1/4 217/1/4
f 217/1/4 216/1/4 218/1/4
f 219/1/4 220/1/4 221/1/4
f 221/1/4 220/1/4 222/1/4
f 223/1/4 224/1/4 225/1/4
f 225/1/4 224/1/4 226/1/4
f 227/1/4 228/1/4 229/1/4
f 229/1/4 228/1/4 230/1/4
f 231/1/4 232/1/4 234/1/4
f 233/1/4 234/1/4 235/1/4
f 234/1/4 232/1/4 236/1/4
f 235/1/4 234/1/4 236/1/4
f 237/1/4 238/1/4 239/1/4
f 239/1/4 238/1/4 240/1/4
f 241/1/4 242/1/4 243/1/4
f 243/1/4 242/1/4 244/1/4
f 245/1/4 246/1/4 247/1/4
f 247/1/4 246/1/4 248/1/4
f 254/1/5 250/1/5 249/1/5
f 255/1/5 252/1/5 251/1/5
f 256/1/5 254/1/5 253/1/5
f 257/1/5 255/1/5 251/1/5
f 257/1/5 256/1/5 255/1/5
f 258/1/5 254/1/5 256/1/5
f 258/1/5 256/1/5 257/1/5
f 258/1/5 250/1/5 254/1/5
f 261/1/5 260/1/5 259/1/5
f 262/1/5 260/1/5 261/1/5
f 265/1/5 264/1/5 263/1/5
f 266/1/5 264/1/5 265/1/5
f 270/1/5 268/1/5 267/1/5
f 271/1/5 270/1/5 269/1/5
f 272/1/5 268/1/5 270/1/5
f 272/1/5 270/1/5 271/1/5
f 275/1/5 274/1/5 273/1/5
f 276/1/5 274/1/5 275/1/5
f 279/1/5 278/1/5 277/1/5
f 280/1/5 278/1/5 279/1/5
f 284/1/5 282/1/5 281/1/5
f 285/1/5 284/1/5 283/1/5
f 286/1/5 282/1/5 284/1/5
f 286/1/5 284/1/5 285/1/5
f 289/1/5 288/1/5 287/1/5
f 290/1/5 288/1/5 289/1/5
f 293/1/5 292/1/5 291/1/5
f 295/1/5 293/1/5 291/1/5
f 295/1/5 294/1/5 293/1/5
f 296/1/5 294/1/5 295/1/5
f 299/1/5 298/1/5 297/1/5
f 300/1/5 298/1/5 299/1/5
f 305/1/5 302/1/5 301/1/5
f 306/1/5 302/1/5 305/1/5
f 307/1/5 304/1/5 303/1/5
f 308/1/5 304/1/5 307/1/5
f 311/1/5 310/1/5 309/1/5
f 312/1/5 310/1/5 311/1/5
f 313/1/6 314/1/6 315/1/6
f 315/1/6 314/1/6 316/1/6
f 317/1/6 318/1/6 320/1/6
f 319/1/6 320/1/6 321/1/6
f 320/1/6 318/1/6 322/1/6
f 321/1/6 320/1/6 322/1/6
f 323/1/6 324/1/6 325/1/6
f 325/1/6 324/1/6 326/1/6
f 327/1/6 328/1/6 330/1/6
f 329/1/6 330/1/6 331/1/6
f 330/1/6 328/1/6 332/1/6
f 331/1/6 330/1/6 332/1/6
f 333/1/6 334/1/6 335/1/6
f 333/1/6 335/1/6 337/1/6
f 335/1/6 336/1/6 337/1/6
f 337/1/6 336/1/6 338/1/6
f 339/1/6 340/1/6 341/1/6
f 341/1/6 340/1/6 342/1/6
f 343/1/6 344/1/6 345/1/6
f 345/1/6 344/1/6 346/1/6
f 347/1/6 348/1/6 349/1/6
f 349/1/6 348/1/6 350/1/6
f 351/1/6 352/1/6 353/1/6
f 353/1/6 352/1/6 354/1/6
f 355/1/6 356/1/6 357/1/6
f 357/1/6 356/1/6 358/1/6
f 359/1/6 360/1/6 361/1/6
f 361/1/6 360/1/6 362/1/6
f 363/1/6 364/1/6 368/1/6
f 365/1/6 366/1/6 369/1/6
f 367/1/6 368/1/6 370/1/6
f 365/1/6 369/1/6 371/1/6
f 369/1/6 370/1/6 371/1/6
f 370/1/6 368/1/6 372/1/6
f 371/1/6 370/1/6 372/1/6
f 368/1/6 364/1/6 372/1/6
