# MagicaVoxel @ ephtracy

# material
mtllib minecart.mtl
usemtl palette

# normals
vn -1 0 0
vn 1 0 0
vn 0 0 1
vn 0 0 -1
vn 0 -1 0
vn 0 1 0

# texcoords
vt 0.0410156 0.5
vt 0.0449219 0.5
vt 0.228516 0.5
vt 0.423828 0.5
vt 0.982422 0.5

# verts
v -12 13 3
v -12 13 -0
v -12 14 2
v -12 14 1
v -12 15 2
v -12 15 1
v -12 16 3
v -12 16 -0
v -11 12 3
v -11 12 2
v -11 12 1
v -11 12 -0
v -11 13 4
v -11 13 3
v -11 13 2
v -11 13 1
v -11 13 -0
v -11 13 -1
v -11 14 4
v -11 14 3
v -11 14 -0
v -11 14 -1
v -11 15 4
v -11 15 3
v -11 15 -0
v -11 15 -1
v -11 16 4
v -11 16 3
v -11 16 2
v -11 16 1
v -11 16 -0
v -11 16 -1
v -11 17 3
v -11 17 2
v -11 17 1
v -11 17 -0
v -9 10 16
v -9 10 14
v -9 10 8
v -9 10 -9
v -9 10 -13
v -9 11 14
v -9 11 11
v -9 11 9
v -9 11 8
v -9 11 -9
v -9 11 -10
v -9 11 -12
v -9 11 -13
v -9 12 11
v -9 12 9
v -9 12 3
v -9 12 -0
v -9 12 -10
v -9 12 -12
v -9 13 4
v -9 13 3
v -9 13 -0
v -9 13 -1
v -9 16 4
v -9 16 3
v -9 16 -0
v -9 16 -1
v -9 17 3
v -9 17 -0
v -9 17 -11
v -9 17 -13
v -9 18 -10
v -9 18 -11
v -9 19 -9
v -9 19 -10
v -9 22 16
v -9 22 -9
v -9 22 -13
v -8 9 16
v -8 9 15
v -8 9 9
v -8 9 -8
v -8 9 -12
v -8 9 -13
v -8 10 16
v -8 10 15
v -8 10 14
v -8 10 9
v -8 10 8
v -8 10 -8
v -8 10 -9
v -8 10 -12
v -8 10 -13
v -7 8 16
v -7 8 14
v -7 8 10
v -7 8 -7
v -7 8 -11
v -7 8 -13
v -7 9 16
v -7 9 15
v -7 9 14
v -7 9 10
v -7 9 9
v -7 9 -7
v -7 9 -8
v -7 9 -11
v -7 9 -12
v -7 9 -13
v -6 7 16
v -6 7 13
v -6 7 11
v -6 7 -8
v -6 7 -10
v -6 7 -13
v -6 8 16
v -6 8 14
v -6 8 13
v -6 8 11
v -6 8 10
v -6 8 -7
v -6 8 -8
v -6 8 -10
v -6 8 -11
v -6 8 -13
v -3 5 4
v -3 5 2
v -3 5 1
v -3 5 -1
v -3 6 2
v -3 6 1
v -3 7 4
v -3 7 -1
v -2 4 3
v -2 4 -0
v -2 5 3
v -2 5 2
v -2 5 1
v -2 5 -0
v 8 14 15
v 8 14 13
v 8 14 12
v 8 14 -12
v 8 15 15
v 8 15 13
v 8 16 15
v 8 22 15
v 8 22 -12
v -8 14 15
v -8 14 -12
v -8 17 -11
v -8 17 -12
v -8 18 -10
v -8 18 -11
v -8 19 -9
v -8 19 -10
v -8 22 15
v -8 22 -9
v -8 22 -12
v 2 4 3
v 2 4 -0
v 2 5 3
v 2 5 2
v 2 5 1
v 2 5 -0
v 3 5 4
v 3 5 2
v 3 5 1
v 3 5 -1
v 3 6 2
v 3 6 1
v 3 7 4
v 3 7 -1
v 6 7 16
v 6 7 13
v 6 7 -13
v 6 8 16
v 6 8 13
v 6 8 12
v 6 8 -11
v 6 8 -13
v 7 8 16
v 7 8 12
v 7 8 -11
v 7 8 -13
v 7 9 16
v 7 9 12
v 7 9 -10
v 7 9 -11
v 7 9 -13
v 8 9 16
v 8 9 12
v 8 9 -10
v 8 9 -13
v 8 10 16
v 8 10 12
v 8 10 -10
v 8 10 -11
v 8 10 -13
v 9 10 16
v 9 10 12
v 9 10 -11
v 9 10 -13
v 9 11 13
v 9 11 12
v 9 11 -11
v 9 11 -13
v 9 12 3
v 9 12 -0
v 9 13 4
v 9 13 3
v 9 13 -0
v 9 13 -1
v 9 15 16
v 9 15 13
v 9 16 4
v 9 16 3
v 9 16 -0
v 9 16 -1
v 9 17 3
v 9 17 -0
v 9 22 16
v 9 22 -13
v 11 12 3
v 11 12 2
v 11 12 1
v 11 12 -0
v 11 13 4
v 11 13 3
v 11 13 2
v 11 13 1
v 11 13 -0
v 11 13 -1
v 11 14 4
v 11 14 3
v 11 14 -0
v 11 14 -1
v 11 15 4
v 11 15 3
v 11 15 -0
v 11 15 -1
v 11 16 4
v 11 16 3
v 11 16 2
v 11 16 1
v 11 16 -0
v 11 16 -1
v 11 17 3
v 11 17 2
v 11 17 1
v 11 17 -0
v 12 13 3
v 12 13 -0
v 12 14 2
v 12 14 1
v 12 15 2
v 12 15 1
v 12 16 3
v 12 16 -0
v -9 10 16
v -9 22 16
v -8 9 16
v -8 10 16
v -7 8 16
v -7 9 16
v -6 7 16
v -6 8 16
v 3 11 16
v 3 14 16
v 4 8 16
v 4 11 16
v 4 14 16
v 4 15 16
v 5 7 16
v 5 8 16
v 5 15 16
v 5 16 16
v 6 7 16
v 6 8 16
v 7 8 16
v 7 9 16
v 8 9 16
v 8 10 16
v 8 15 16
v 8 16 16
v 9 10 16
v 9 15 16
v 9 22 16
v -11 13 4
v -11 14 4
v -11 15 4
v -11 16 4
v -10 14 4
v -10 15 4
v -9 13 4
v -9 16 4
v -3 5 4
v -3 7 4
v -2 5 4
v -2 6 4
v -1 5 4
v -1 6 4
v 1 5 4
v 1 6 4
v 2 5 4
v 2 6 4
v 3 5 4
v 3 7 4
v 9 13 4
v 9 16 4
v 10 14 4
v 10 15 4
v 11 13 4
v 11 14 4
v 11 15 4
v 11 16 4
v -12 13 3
v -12 16 3
v -11 12 3
v -11 13 3
v -11 14 3
v -11 15 3
v -11 16 3
v -11 17 3
v -9 12 3
v -9 13 3
v -9 16 3
v -9 17 3
v -2 4 3
v -2 5 3
v -1 5 3
v 1 5 3
v 2 4 3
v 2 5 3
v 9 12 3
v 9 13 3
v 9 16 3
v 9 17 3
v 11 12 3
v 11 13 3
v 11 14 3
v 11 15 3
v 11 16 3
v 11 17 3
v 12 13 3
v 12 16 3
v -8 14 -12
v -8 17 -12
v -8 22 -12
v -7 17 -12
v -7 18 -12
v -6 18 -12
v -6 19 -12
v -5 19 -12
v -5 22 -12
v 8 14 -12
v 8 22 -12
v -8 14 15
v -8 22 15
v 3 14 15
v 4 14 15
v 4 15 15
v 5 15 15
v 5 16 15
v 8 14 15
v 8 15 15
v 8 16 15
v 8 22 15
v -12 13 -0
v -12 16 -0
v -11 12 -0
v -11 13 -0
v -11 14 -0
v -11 15 -0
v -11 16 -0
v -11 17 -0
v -9 12 -0
v -9 13 -0
v -9 16 -0
v -9 17 -0
v -2 4 -0
v -2 5 -0
v -1 5 -0
v 1 5 -0
v 2 4 -0
v 2 5 -0
v 9 12 -0
v 9 13 -0
v 9 16 -0
v 9 17 -0
v 11 12 -0
v 11 13 -0
v 11 14 -0
v 11 15 -0
v 11 16 -0
v 11 17 -0
v 12 13 -0
v 12 16 -0
v -11 13 -1
v -11 14 -1
v -11 15 -1
v -11 16 -1
v -10 14 -1
v -10 15 -1
v -9 13 -1
v -9 16 -1
v -3 5 -1
v -3 7 -1
v -2 5 -1
v -2 6 -1
v -1 5 -1
v -1 6 -1
v 1 5 -1
v 1 6 -1
v 2 5 -1
v 2 6 -1
v 3 5 -1
v 3 7 -1
v 9 13 -1
v 9 16 -1
v 10 14 -1
v 10 15 -1
v 11 13 -1
v 11 14 -1
v 11 15 -1
v 11 16 -1
v -9 10 -13
v -9 11 -13
v -9 17 -13
v -9 22 -13
v -8 9 -13
v -8 10 -13
v -8 11 -13
v -7 8 -13
v -7 9 -13
v -7 17 -13
v -7 18 -13
v -6 7 -13
v -6 8 -13
v -6 18 -13
v -6 19 -13
v -5 19 -13
v -5 22 -13
v 4 10 -13
v 4 12 -13
v 5 9 -13
v 5 10 -13
v 5 12 -13
v 5 13 -13
v 6 7 -13
v 6 8 -13
v 6 9 -13
v 7 8 -13
v 7 9 -13
v 7 12 -13
v 7 13 -13
v 8 9 -13
v 8 10 -13
v 8 11 -13
v 8 12 -13
v 9 10 -13
v 9 11 -13
v 9 22 -13
v -2 4 3
v 2 4 3
v -1 4 2
v 1 4 2
v -1 4 1
v 1 4 1
v -2 4 -0
v 2 4 -0
v -3 5 4
v -2 5 4
v -1 5 4
v 1 5 4
v 2 5 4
v 3 5 4
v -2 5 3
v -1 5 3
v 1 5 3
v 2 5 3
v -3 5 2
v -2 5 2
v 2 5 2
v 3 5 2
v -3 5 1
v -2 5 1
v 2 5 1
v 3 5 1
v -2 5 -0
v -1 5 -0
v 1 5 -0
v 2 5 -0
v -3 5 -1
v -2 5 -1
v -1 5 -1
v 1 5 -1
v 2 5 -1
v 3 5 -1
v -6 7 16
v 5 7 16
v 6 7 16
v -6 7 13
v -5 7 13
v 5 7 13
v 6 7 13
v -6 7 11
v -5 7 11
v -3 7 4
v 3 7 4
v -3 7 -1
v 3 7 -1
v -6 7 -8
v -5 7 -8
v -6 7 -10
v -5 7 -10
v -6 7 -13
v 6 7 -13
v -7 8 16
v -6 8 16
v 6 8 16
v 7 8 16
v -7 8 14
v -6 8 14
v -6 8 13
v 6 8 13
v 6 8 12
v 7 8 12
v -6 8 11
v -7 8 10
v -6 8 10
v -7 8 -7
v -6 8 -7
v -6 8 -8
v -6 8 -10
v -7 8 -11
v -6 8 -11
v 6 8 -11
v 7 8 -11
v -7 8 -13
v -6 8 -13
v 6 8 -13
v 7 8 -13
v -8 9 16
v -7 9 16
v 7 9 16
v 8 9 16
v -8 9 15
v -7 9 15
v -7 9 14
v 7 9 12
v 8 9 12
v -7 9 10
v -8 9 9
v -7 9 9
v -7 9 -7
v -8 9 -8
v -7 9 -8
v 7 9 -10
v 8 9 -10
v -7 9 -11
v 7 9 -11
v -8 9 -12
v -7 9 -12
v -8 9 -13
v -7 9 -13
v 7 9 -13
v 8 9 -13
v -9 10 16
v -8 10 16
v 8 10 16
v 9 10 16
v -8 10 15
v -9 10 14
v -8 10 14
v 8 10 12
v 9 10 12
v -8 10 9
v -9 10 8
v -8 10 8
v -8 10 -8
v -9 10 -9
v -8 10 -9
v 8 10 -10
v 8 10 -11
v 9 10 -11
v -8 10 -12
v -9 10 -13
v -8 10 -13
v 8 10 -13
v 9 10 -13
v -11 12 3
v -9 12 3
v 9 12 3
v 11 12 3
v -11 12 2
v -10 12 2
v 10 12 2
v 11 12 2
v -11 12 1
v -10 12 1
v 10 12 1
v 11 12 1
v -11 12 -0
v -9 12 -0
v 9 12 -0
v 11 12 -0
v -11 13 4
v -9 13 4
v 9 13 4
v 11 13 4
v -12 13 3
v -11 13 3
v -9 13 3
v 9 13 3
v 11 13 3
v 12 13 3
v -11 13 2
v 11 13 2
v -11 13 1
v 11 13 1
v -12 13 -0
v -11 13 -0
v -9 13 -0
v 9 13 -0
v 11 13 -0
v 12 13 -0
v -11 13 -1
v -9 13 -1
v 9 13 -1
v 11 13 -1
v -8 14 15
v 3 14 15
v 4 14 15
v 8 14 15
v 3 14 14
v 4 14 14
v 4 14 13
v 5 14 13
v 8 14 13
v 5 14 12
v 8 14 12
v -8 14 -12
v 8 14 -12
v -11 16 4
v -9 16 4
v 9 16 4
v 11 16 4
v -12 16 3
v -11 16 3
v -9 16 3
v 9 16 3
v 11 16 3
v 12 16 3
v -11 16 2
v 11 16 2
v -11 16 1
v 11 16 1
v -12 16 -0
v -11 16 -0
v -9 16 -0
v 9 16 -0
v 11 16 -0
v 12 16 -0
v -11 16 -1
v -9 16 -1
v 9 16 -1
v 11 16 -1
v -11 17 3
v -9 17 3
v 9 17 3
v 11 17 3
v -11 17 2
v -10 17 2
v 10 17 2
v 11 17 2
v -11 17 1
v -10 17 1
v 10 17 1
v 11 17 1
v -11 17 -0
v -9 17 -0
v 9 17 -0
v 11 17 -0
v -9 22 16
v 9 22 16
v -8 22 15
v 8 22 15
v -9 22 -9
v -8 22 -9
v -8 22 -12
v -5 22 -12
v 8 22 -12
v -9 22 -13
v -5 22 -13
v 9 22 -13

# faces
f 3/2/1 2/2/1 1/2/1
f 4/2/1 2/2/1 3/2/1
f 5/2/1 3/2/1 1/2/1
f 5/4/1 4/4/1 3/4/1
f 6/2/1 2/2/1 4/2/1
f 6/4/1 4/4/1 5/4/1
f 7/2/1 5/2/1 1/2/1
f 7/2/1 6/2/1 5/2/1
f 8/2/1 2/2/1 6/2/1
f 8/2/1 6/2/1 7/2/1
f 14/2/1 10/2/1 9/2/1
f 15/4/1 11/4/1 10/4/1
f 15/2/1 10/2/1 14/2/1
f 16/2/1 12/2/1 11/2/1
f 16/4/1 11/4/1 15/4/1
f 17/2/1 12/2/1 16/2/1
f 19/2/1 14/2/1 13/2/1
f 20/2/1 14/2/1 19/2/1
f 21/2/1 18/2/1 17/2/1
f 22/2/1 18/2/1 21/2/1
f 23/4/1 20/4/1 19/4/1
f 24/4/1 20/4/1 23/4/1
f 25/4/1 22/4/1 21/4/1
f 26/4/1 22/4/1 25/4/1
f 27/2/1 24/2/1 23/2/1
f 28/2/1 24/2/1 27/2/1
f 31/2/1 26/2/1 25/2/1
f 32/2/1 26/2/1 31/2/1
f 33/2/1 29/2/1 28/2/1
f 34/4/1 30/4/1 29/4/1
f 34/2/1 29/2/1 33/2/1
f 35/2/1 31/2/1 30/2/1
f 35/4/1 30/4/1 34/4/1
f 36/2/1 31/2/1 35/2/1
f 42/5/1 38/5/1 37/5/1
f 42/3/1 39/3/1 38/3/1
f 43/3/1 39/3/1 42/3/1
f 44/3/1 39/3/1 43/3/1
f 45/5/1 40/5/1 39/5/1
f 45/3/1 39/3/1 44/3/1
f 46/3/1 41/3/1 40/3/1
f 46/5/1 40/5/1 45/5/1
f 47/3/1 41/3/1 46/3/1
f 48/3/1 41/3/1 47/3/1
f 49/3/1 41/3/1 48/3/1
f 50/3/1 44/3/1 43/3/1
f 50/5/1 43/5/1 42/5/1
f 51/5/1 45/5/1 44/5/1
f 51/3/1 44/3/1 50/3/1
f 51/5/1 46/5/1 45/5/1
f 51/5/1 47/5/1 46/5/1
f 52/5/1 47/5/1 51/5/1
f 53/5/1 47/5/1 52/5/1
f 54/3/1 48/3/1 47/3/1
f 54/5/1 47/5/1 53/5/1
f 55/5/1 49/5/1 48/5/1
f 55/3/1 48/3/1 54/3/1
f 56/5/1 51/5/1 50/5/1
f 56/5/1 52/5/1 51/5/1
f 57/5/1 52/5/1 56/5/1
f 58/5/1 54/5/1 53/5/1
f 58/5/1 55/5/1 54/5/1
f 59/5/1 55/5/1 58/5/1
f 60/5/1 56/5/1 50/5/1
f 63/5/1 55/5/1 59/5/1
f 64/5/1 61/5/1 60/5/1
f 65/5/1 63/5/1 62/5/1
f 66/5/1 55/5/1 63/5/1
f 66/5/1 63/5/1 65/5/1
f 67/5/1 49/5/1 55/5/1
f 67/5/1 55/5/1 66/5/1
f 68/5/1 66/5/1 65/5/1
f 68/5/1 65/5/1 64/5/1
f 69/3/1 67/3/1 66/3/1
f 69/5/1 66/5/1 68/5/1
f 70/5/1 68/5/1 64/5/1
f 71/3/1 69/3/1 68/3/1
f 71/5/1 68/5/1 70/5/1
f 72/5/1 50/5/1 42/5/1
f 72/5/1 42/5/1 37/5/1
f 72/5/1 64/5/1 60/5/1
f 72/5/1 70/5/1 64/5/1
f 72/5/1 60/5/1 50/5/1
f 73/3/1 71/3/1 70/3/1
f 73/5/1 70/5/1 72/5/1
f 74/3/1 69/3/1 71/3/1
f 74/3/1 71/3/1 73/3/1
f 74/3/1 67/3/1 69/3/1
f 81/5/1 76/5/1 75/5/1
f 82/3/1 77/3/1 76/3/1
f 82/5/1 76/5/1 81/5/1
f 83/3/1 77/3/1 82/3/1
f 84/5/1 78/5/1 77/5/1
f 84/3/1 77/3/1 83/3/1
f 85/5/1 78/5/1 84/5/1
f 86/3/1 79/3/1 78/3/1
f 86/5/1 78/5/1 85/5/1
f 87/3/1 79/3/1 86/3/1
f 88/5/1 80/5/1 79/5/1
f 88/3/1 79/3/1 87/3/1
f 89/5/1 80/5/1 88/5/1
f 96/5/1 91/5/1 90/5/1
f 97/5/1 91/5/1 96/5/1
f 98/3/1 92/3/1 91/3/1
f 98/5/1 91/5/1 97/5/1
f 99/5/1 93/5/1 92/5/1
f 99/3/1 92/3/1 98/3/1
f 100/5/1 93/5/1 99/5/1
f 101/3/1 94/3/1 93/3/1
f 101/5/1 93/5/1 100/5/1
f 102/3/1 94/3/1 101/3/1
f 103/5/1 95/5/1 94/5/1
f 103/3/1 94/3/1 102/3/1
f 104/5/1 95/5/1 103/5/1
f 105/5/1 95/5/1 104/5/1
f 112/5/1 107/5/1 106/5/1
f 113/5/1 107/5/1 112/5/1
f 114/3/1 108/3/1 107/3/1
f 114/5/1 107/5/1 113/5/1
f 115/5/1 109/5/1 108/5/1
f 115/3/1 108/3/1 114/3/1
f 116/5/1 109/5/1 115/5/1
f 117/5/1 109/5/1 116/5/1
f 118/3/1 110/3/1 109/3/1
f 118/5/1 109/5/1 117/5/1
f 119/5/1 111/5/1 110/5/1
f 119/3/1 110/3/1 118/3/1
f 120/5/1 111/5/1 119/5/1
f 121/5/1 111/5/1 120/5/1
f 126/1/1 123/1/1 122/1/1
f 126/4/1 124/4/1 123/4/1
f 127/1/1 125/1/1 124/1/1
f 127/4/1 124/4/1 126/4/1
f 128/1/1 126/1/1 122/1/1
f 128/1/1 127/1/1 126/1/1
f 129/1/1 125/1/1 127/1/1
f 129/1/1 127/1/1 128/1/1
f 132/1/1 131/1/1 130/1/1
f 133/1/1 131/1/1 132/1/1
f 134/1/1 131/1/1 133/1/1
f 135/1/1 131/1/1 134/1/1
f 140/3/1 137/3/1 136/3/1
f 141/5/1 139/5/1 138/5/1
f 141/3/1 137/3/1 140/3/1
f 141/5/1 138/5/1 137/5/1
f 142/5/1 141/5/1 140/5/1
f 143/5/1 141/5/1 142/5/1
f 144/5/1 139/5/1 141/5/1
f 144/5/1 141/5/1 143/5/1
f 145/5/2 146/5/2 147/5/2
f 147/5/2 146/5/2 148/5/2
f 145/5/2 147/5/2 149/5/2
f 147/3/2 148/3/2 150/3/2
f 149/5/2 147/5/2 150/5/2
f 145/5/2 149/5/2 151/5/2
f 149/3/2 150/3/2 152/3/2
f 151/5/2 149/5/2 152/5/2
f 145/5/2 151/5/2 153/5/2
f 151/3/2 152/3/2 154/3/2
f 153/5/2 151/5/2 154/5/2
f 150/3/2 148/3/2 155/3/2
f 154/3/2 152/3/2 155/3/2
f 152/3/2 150/3/2 155/3/2
f 156/1/2 157/1/2 158/1/2
f 158/1/2 157/1/2 159/1/2
f 159/1/2 157/1/2 160/1/2
f 160/1/2 157/1/2 161/1/2
f 162/1/2 163/1/2 166/1/2
f 163/4/2 164/4/2 166/4/2
f 164/1/2 165/1/2 167/1/2
f 166/4/2 164/4/2 167/4/2
f 162/1/2 166/1/2 168/1/2
f 166/1/2 167/1/2 168/1/2
f 167/1/2 165/1/2 169/1/2
f 168/1/2 167/1/2 169/1/2
f 170/3/2 171/3/2 173/3/2
f 171/5/2 172/5/2 174/5/2
f 173/3/2 171/3/2 174/3/2
f 174/5/2 172/5/2 175/5/2
f 175/5/2 172/5/2 176/5/2
f 176/5/2 172/5/2 177/5/2
f 178/3/2 179/3/2 182/3/2
f 179/5/2 180/5/2 183/5/2
f 182/3/2 179/3/2 183/3/2
f 183/5/2 180/5/2 184/5/2
f 180/3/2 181/3/2 185/3/2
f 184/5/2 180/5/2 185/5/2
f 185/3/2 181/3/2 186/3/2
f 187/3/2 188/3/2 191/3/2
f 188/5/2 189/5/2 192/5/2
f 191/3/2 188/3/2 192/3/2
f 189/3/2 190/3/2 193/3/2
f 192/5/2 189/5/2 193/5/2
f 193/3/2 190/3/2 194/3/2
f 194/3/2 190/3/2 195/3/2
f 196/3/2 197/3/2 200/3/2
f 197/5/2 198/5/2 201/5/2
f 200/3/2 197/3/2 201/3/2
f 198/3/2 199/3/2 202/3/2
f 201/5/2 198/5/2 202/5/2
f 202/3/2 199/3/2 203/3/2
f 200/5/2 201/5/2 204/5/2
f 201/5/2 202/5/2 204/5/2
f 202/5/2 203/5/2 204/5/2
f 204/5/2 203/5/2 205/5/2
f 200/5/2 204/5/2 206/5/2
f 206/5/2 204/5/2 207/5/2
f 205/5/2 203/5/2 208/5/2
f 208/5/2 203/5/2 209/5/2
f 196/3/2 200/3/2 210/3/2
f 200/5/2 206/5/2 211/5/2
f 210/3/2 200/3/2 211/3/2
f 210/5/2 211/5/2 212/5/2
f 211/5/2 206/5/2 212/5/2
f 209/5/2 203/5/2 215/5/2
f 212/5/2 213/5/2 216/5/2
f 214/5/2 215/5/2 217/5/2
f 212/5/2 216/5/2 218/5/2
f 216/5/2 217/5/2 218/5/2
f 210/5/2 212/5/2 218/5/2
f 217/5/2 215/5/2 219/5/2
f 218/5/2 217/5/2 219/5/2
f 215/5/2 203/5/2 219/5/2
f 220/2/2 221/2/2 225/2/2
f 221/4/2 222/4/2 226/4/2
f 225/2/2 221/2/2 226/2/2
f 222/2/2 223/2/2 227/2/2
f 226/4/2 222/4/2 227/4/2
f 227/2/2 223/2/2 228/2/2
f 224/2/2 225/2/2 230/2/2
f 230/2/2 225/2/2 231/2/2
f 228/2/2 229/2/2 232/2/2
f 232/2/2 229/2/2 233/2/2
f 230/4/2 231/4/2 234/4/2
f 234/4/2 231/4/2 235/4/2
f 232/4/2 233/4/2 236/4/2
f 236/4/2 233/4/2 237/4/2
f 234/2/2 235/2/2 238/2/2
f 238/2/2 235/2/2 239/2/2
f 236/2/2 237/2/2 242/2/2
f 242/2/2 237/2/2 243/2/2
f 239/2/2 240/2/2 244/2/2
f 240/4/2 241/4/2 245/4/2
f 244/2/2 240/2/2 245/2/2
f 241/2/2 242/2/2 246/2/2
f 245/4/2 241/4/2 246/4/2
f 246/2/2 242/2/2 247/2/2
f 248/2/2 249/2/2 250/2/2
f 250/2/2 249/2/2 251/2/2
f 248/2/2 250/2/2 252/2/2
f 250/4/2 251/4/2 252/4/2
f 251/2/2 249/2/2 253/2/2
f 252/4/2 251/4/2 253/4/2
f 248/2/2 252/2/2 254/2/2
f 252/2/2 253/2/2 254/2/2
f 253/2/2 249/2/2 255/2/2
f 254/2/2 253/2/2 255/2/2
f 259/5/3 257/5/3 256/5/3
f 261/5/3 259/5/3 258/5/3
f 263/5/3 261/5/3 260/5/3
f 264/5/3 257/5/3 259/5/3
f 264/5/3 263/5/3 262/5/3
f 264/5/3 261/5/3 263/5/3
f 264/5/3 259/5/3 261/5/3
f 265/5/3 257/5/3 264/5/3
f 266/5/3 264/5/3 262/5/3
f 267/3/3 265/3/3 264/3/3
f 267/5/3 264/5/3 266/5/3
f 268/5/3 257/5/3 265/5/3
f 268/3/3 265/3/3 267/3/3
f 269/5/3 257/5/3 268/5/3
f 270/5/3 266/5/3 262/5/3
f 271/3/3 267/3/3 266/3/3
f 271/5/3 266/5/3 270/5/3
f 271/3/3 268/3/3 267/3/3
f 271/3/3 269/3/3 268/3/3
f 272/5/3 257/5/3 269/5/3
f 272/3/3 269/3/3 271/3/3
f 273/5/3 257/5/3 272/5/3
f 274/3/3 271/3/3 270/3/3
f 274/3/3 272/3/3 271/3/3
f 274/3/3 273/3/3 272/3/3
f 275/3/3 273/3/3 274/3/3
f 276/3/3 273/3/3 275/3/3
f 277/3/3 273/3/3 276/3/3
f 278/3/3 273/3/3 277/3/3
f 279/3/3 273/3/3 278/3/3
f 280/3/3 273/3/3 279/3/3
f 281/5/3 257/5/3 273/5/3
f 281/3/3 273/3/3 280/3/3
f 282/3/3 280/3/3 279/3/3
f 283/5/3 281/5/3 280/5/3
f 283/3/3 280/3/3 282/3/3
f 284/5/3 257/5/3 281/5/3
f 284/5/3 281/5/3 283/5/3
f 289/2/3 286/2/3 285/2/3
f 289/4/3 287/4/3 286/4/3
f 290/2/3 288/2/3 287/2/3
f 290/4/3 287/4/3 289/4/3
f 291/2/3 289/2/3 285/2/3
f 291/2/3 290/2/3 289/2/3
f 292/2/3 288/2/3 290/2/3
f 292/2/3 290/2/3 291/2/3
f 295/1/3 294/1/3 293/1/3
f 296/1/3 294/1/3 295/1/3
f 297/4/3 296/4/3 295/4/3
f 298/1/3 294/1/3 296/1/3
f 298/4/3 296/4/3 297/4/3
f 299/1/3 298/1/3 297/1/3
f 300/1/3 294/1/3 298/1/3
f 300/1/3 298/1/3 299/1/3
f 301/4/3 300/4/3 299/4/3
f 302/1/3 294/1/3 300/1/3
f 302/4/3 300/4/3 301/4/3
f 303/1/3 302/1/3 301/1/3
f 304/1/3 294/1/3 302/1/3
f 304/1/3 302/1/3 303/1/3
f 307/2/3 306/2/3 305/2/3
f 308/2/3 306/2/3 307/2/3
f 309/2/3 307/2/3 305/2/3
f 310/4/3 308/4/3 307/4/3
f 310/2/3 307/2/3 309/2/3
f 311/2/3 306/2/3 308/2/3
f 311/4/3 308/4/3 310/4/3
f 312/2/3 306/2/3 311/2/3
f 316/2/3 314/2/3 313/2/3
f 317/2/3 314/2/3 316/2/3
f 318/2/3 314/2/3 317/2/3
f 319/2/3 314/2/3 318/2/3
f 321/2/3 316/2/3 315/2/3
f 322/2/3 316/2/3 321/2/3
f 323/2/3 320/2/3 319/2/3
f 324/2/3 320/2/3 323/2/3
f 327/1/3 326/1/3 325/1/3
f 328/1/3 327/1/3 325/1/3
f 329/1/3 328/1/3 325/1/3
f 330/1/3 328/1/3 329/1/3
f 335/2/3 332/2/3 331/2/3
f 336/2/3 332/2/3 335/2/3
f 339/2/3 334/2/3 333/2/3
f 340/2/3 334/2/3 339/2/3
f 341/2/3 338/2/3 337/2/3
f 341/2/3 339/2/3 338/2/3
f 341/2/3 337/2/3 336/2/3
f 342/2/3 339/2/3 341/2/3
f 346/5/3 344/5/3 343/5/3
f 346/3/3 345/3/3 344/3/3
f 347/3/3 345/3/3 346/3/3
f 348/5/3 347/5/3 346/5/3
f 348/3/3 345/3/3 347/3/3
f 349/3/3 345/3/3 348/3/3
f 350/5/3 349/5/3 348/5/3
f 350/3/3 345/3/3 349/3/3
f 351/3/3 345/3/3 350/3/3
f 352/5/3 346/5/3 343/5/3
f 352/5/3 348/5/3 346/5/3
f 352/5/3 351/5/3 350/5/3
f 352/5/3 350/5/3 348/5/3
f 353/5/3 351/5/3 352/5/3
f 354/5/4 355/5/4 356/5/4
f 356/5/4 355/5/4 357/5/4
f 357/5/4 355/5/4 358/5/4
f 357/3/4 358/3/4 359/3/4
f 358/5/4 355/5/4 359/5/4
f 359/5/4 355/5/4 360/5/4
f 357/3/4 359/3/4 361/3/4
f 359/3/4 360/3/4 361/3/4
f 361/3/4 360/3/4 362/3/4
f 360/5/4 355/5/4 363/5/4
f 362/3/4 360/3/4 363/3/4
f 363/5/4 355/5/4 364/5/4
f 365/2/4 366/2/4 368/2/4
f 368/2/4 366/2/4 369/2/4
f 369/2/4 366/2/4 370/2/4
f 370/2/4 366/2/4 371/2/4
f 367/2/4 368/2/4 373/2/4
f 373/2/4 368/2/4 374/2/4
f 371/2/4 372/2/4 375/2/4
f 375/2/4 372/2/4 376/2/4
f 377/1/4 378/1/4 379/1/4
f 377/1/4 379/1/4 380/1/4
f 377/1/4 380/1/4 381/1/4
f 381/1/4 380/1/4 382/1/4
f 383/2/4 384/2/4 387/2/4
f 387/2/4 384/2/4 388/2/4
f 385/2/4 386/2/4 391/2/4
f 391/2/4 386/2/4 392/2/4
f 389/2/4 390/2/4 393/2/4
f 390/2/4 391/2/4 393/2/4
f 388/2/4 389/2/4 393/2/4
f 393/2/4 391/2/4 394/2/4
f 395/2/4 396/2/4 399/2/4
f 396/4/4 397/4/4 399/4/4
f 397/2/4 398/2/4 400/2/4
f 399/4/4 397/4/4 400/4/4
f 395/2/4 399/2/4 401/2/4
f 399/2/4 400/2/4 401/2/4
f 400/2/4 398/2/4 402/2/4
f 401/2/4 400/2/4 402/2/4
f 403/1/4 404/1/4 405/1/4
f 405/1/4 404/1/4 406/1/4
f 405/4/4 406/4/4 407/4/4
f 406/1/4 404/1/4 408/1/4
f 407/4/4 406/4/4 408/4/4
f 407/1/4 408/1/4 409/1/4
f 408/1/4 404/1/4 410/1/4
f 409/1/4 408/1/4 410/1/4
f 409/4/4 410/4/4 411/4/4
f 410/1/4 404/1/4 412/1/4
f 411/4/4 410/4/4 412/4/4
f 411/1/4 412/1/4 413/1/4
f 412/1/4 404/1/4 414/1/4
f 413/1/4 412/1/4 414/1/4
f 415/2/4 416/2/4 417/2/4
f 417/2/4 416/2/4 418/2/4
f 415/2/4 417/2/4 419/2/4
f 417/4/4 418/4/4 420/4/4
f 419/2/4 417/2/4 420/2/4
f 418/2/4 416/2/4 421/2/4
f 420/4/4 418/4/4 421/4/4
f 421/2/4 416/2/4 422/2/4
f 423/3/4 424/3/4 428/3/4
f 424/5/4 425/5/4 429/5/4
f 428/3/4 424/3/4 429/3/4
f 427/5/4 428/5/4 431/5/4
f 428/5/4 429/5/4 431/5/4
f 425/3/4 426/3/4 432/3/4
f 429/5/4 425/5/4 432/5/4
f 431/5/4 429/5/4 432/5/4
f 432/3/4 426/3/4 433/3/4
f 430/5/4 431/5/4 435/5/4
f 431/5/4 432/5/4 435/5/4
f 432/5/4 433/5/4 435/5/4
f 433/3/4 426/3/4 436/3/4
f 435/5/4 433/5/4 436/5/4
f 436/3/4 426/3/4 437/3/4
f 434/5/4 435/5/4 438/5/4
f 437/3/4 426/3/4 438/3/4
f 436/5/4 437/5/4 438/5/4
f 435/5/4 436/5/4 438/5/4
f 438/3/4 426/3/4 439/3/4
f 434/5/4 438/5/4 440/5/4
f 438/5/4 439/5/4 440/5/4
f 440/5/4 439/5/4 441/5/4
f 434/5/4 440/5/4 442/5/4
f 440/3/4 441/3/4 443/3/4
f 442/5/4 440/5/4 443/5/4
f 441/5/4 439/5/4 444/5/4
f 443/3/4 441/3/4 444/3/4
f 444/5/4 439/5/4 445/5/4
f 434/5/4 442/5/4 446/5/4
f 446/5/4 442/5/4 447/5/4
f 442/3/4 443/3/4 448/3/4
f 447/5/4 442/5/4 448/5/4
f 443/3/4 444/3/4 448/3/4
f 444/3/4 445/3/4 448/3/4
f 447/3/4 448/3/4 449/3/4
f 448/3/4 445/3/4 450/3/4
f 449/3/4 448/3/4 450/3/4
f 450/3/4 445/3/4 451/3/4
f 445/5/4 439/5/4 452/5/4
f 451/3/4 445/3/4 452/3/4
f 450/3/4 451/3/4 453/3/4
f 453/3/4 451/3/4 454/3/4
f 454/3/4 451/3/4 455/3/4
f 451/5/4 452/5/4 456/5/4
f 455/3/4 451/3/4 456/3/4
f 454/3/4 455/3/4 457/3/4
f 455/5/4 456/5/4 458/5/4
f 457/3/4 455/3/4 458/3/4
f 452/5/4 439/5/4 459/5/4
f 458/5/4 456/5/4 459/5/4
f 456/5/4 452/5/4 459/5/4
f 462/1/5 461/1/5 460/1/5
f 463/1/5 461/1/5 462/1/5
f 464/1/5 462/1/5 460/1/5
f 464/4/5 463/4/5 462/4/5
f 465/1/5 461/1/5 463/1/5
f 465/4/5 463/4/5 464/4/5
f 466/1/5 464/1/5 460/1/5
f 466/1/5 465/1/5 464/1/5
f 467/1/5 461/1/5 465/1/5
f 467/1/5 465/1/5 466/1/5
f 474/1/5 469/1/5 468/1/5
f 474/4/5 470/4/5 469/4/5
f 475/1/5 471/1/5 470/1/5
f 475/4/5 470/4/5 474/4/5
f 476/4/5 472/4/5 471/4/5
f 476/1/5 471/1/5 475/1/5
f 477/1/5 473/1/5 472/1/5
f 477/4/5 472/4/5 476/4/5
f 478/1/5 474/1/5 468/1/5
f 479/1/5 474/1/5 478/1/5
f 480/1/5 473/1/5 477/1/5
f 481/1/5 473/1/5 480/1/5
f 482/4/5 479/4/5 478/4/5
f 483/4/5 479/4/5 482/4/5
f 484/4/5 481/4/5 480/4/5
f 485/4/5 481/4/5 484/4/5
f 486/1/5 483/1/5 482/1/5
f 489/1/5 485/1/5 484/1/5
f 490/1/5 486/1/5 482/1/5
f 491/4/5 487/4/5 486/4/5
f 491/1/5 486/1/5 490/1/5
f 492/1/5 488/1/5 487/1/5
f 492/4/5 487/4/5 491/4/5
f 493/4/5 489/4/5 488/4/5
f 493/1/5 488/1/5 492/1/5
f 494/1/5 485/1/5 489/1/5
f 494/4/5 489/4/5 493/4/5
f 495/1/5 485/1/5 494/1/5
f 499/5/5 497/5/5 496/5/5
f 500/5/5 497/5/5 499/5/5
f 501/3/5 498/3/5 497/3/5
f 501/5/5 497/5/5 500/5/5
f 502/3/5 498/3/5 501/3/5
f 503/3/5 500/3/5 499/3/5
f 504/5/5 501/5/5 500/5/5
f 504/3/5 500/3/5 503/3/5
f 504/5/5 502/5/5 501/5/5
f 505/5/5 504/5/5 503/5/5
f 505/5/5 502/5/5 504/5/5
f 506/5/5 502/5/5 505/5/5
f 507/5/5 505/5/5 503/5/5
f 508/5/5 502/5/5 506/5/5
f 509/5/5 507/5/5 503/5/5
f 509/5/5 508/5/5 507/5/5
f 510/5/5 508/5/5 509/5/5
f 511/3/5 510/3/5 509/3/5
f 512/5/5 508/5/5 510/5/5
f 512/3/5 510/3/5 511/3/5
f 513/5/5 512/5/5 511/5/5
f 514/5/5 502/5/5 508/5/5
f 514/5/5 512/5/5 513/5/5
f 514/5/5 508/5/5 512/5/5
f 519/5/5 516/5/5 515/5/5
f 520/5/5 516/5/5 519/5/5
f 521/3/5 520/3/5 519/3/5
f 522/3/5 518/3/5 517/3/5
f 523/3/5 518/3/5 522/3/5
f 524/3/5 518/3/5 523/3/5
f 525/3/5 521/3/5 519/3/5
f 526/3/5 525/3/5 519/3/5
f 527/3/5 525/3/5 526/3/5
f 528/5/5 527/5/5 526/5/5
f 529/5/5 527/5/5 528/5/5
f 530/3/5 529/3/5 528/3/5
f 531/3/5 530/3/5 528/3/5
f 532/3/5 531/3/5 528/3/5
f 533/3/5 531/3/5 532/3/5
f 534/5/5 524/5/5 523/5/5
f 535/5/5 524/5/5 534/5/5
f 536/5/5 533/5/5 532/5/5
f 537/5/5 533/5/5 536/5/5
f 538/3/5 535/3/5 534/3/5
f 539/3/5 535/3/5 538/3/5
f 544/5/5 541/5/5 540/5/5
f 545/5/5 541/5/5 544/5/5
f 546/3/5 545/3/5 544/3/5
f 547/3/5 543/3/5 542/3/5
f 548/3/5 543/3/5 547/3/5
f 549/3/5 546/3/5 544/3/5
f 550/3/5 549/3/5 544/3/5
f 551/3/5 549/3/5 550/3/5
f 552/5/5 551/5/5 550/5/5
f 553/5/5 552/5/5 550/5/5
f 554/5/5 552/5/5 553/5/5
f 555/5/5 548/5/5 547/5/5
f 556/5/5 548/5/5 555/5/5
f 557/3/5 554/3/5 553/3/5
f 558/3/5 556/3/5 555/3/5
f 559/3/5 557/3/5 553/3/5
f 560/3/5 557/3/5 559/3/5
f 561/5/5 560/5/5 559/5/5
f 562/5/5 560/5/5 561/5/5
f 563/3/5 556/3/5 558/3/5
f 564/3/5 556/3/5 563/3/5
f 569/5/5 566/5/5 565/5/5
f 570/5/5 569/5/5 565/5/5
f 571/5/5 569/5/5 570/5/5
f 572/3/5 568/3/5 567/3/5
f 573/3/5 568/3/5 572/3/5
f 574/3/5 571/3/5 570/3/5
f 575/3/5 574/3/5 570/3/5
f 576/3/5 574/3/5 575/3/5
f 577/5/5 576/5/5 575/5/5
f 578/5/5 577/5/5 575/5/5
f 579/5/5 577/5/5 578/5/5
f 580/5/5 573/5/5 572/5/5
f 581/5/5 573/5/5 580/5/5
f 582/5/5 573/5/5 581/5/5
f 583/3/5 579/3/5 578/3/5
f 584/3/5 583/3/5 578/3/5
f 585/3/5 583/3/5 584/3/5
f 586/3/5 582/3/5 581/3/5
f 587/3/5 582/3/5 586/3/5
f 592/2/5 589/2/5 588/2/5
f 593/2/5 589/2/5 592/2/5
f 594/2/5 591/2/5 590/2/5
f 595/2/5 591/2/5 594/2/5
f 596/4/5 593/4/5 592/4/5
f 597/2/5 589/2/5 593/2/5
f 597/4/5 593/4/5 596/4/5
f 598/2/5 594/2/5 590/2/5
f 598/4/5 595/4/5 594/4/5
f 599/4/5 595/4/5 598/4/5
f 600/2/5 597/2/5 596/2/5
f 601/2/5 589/2/5 597/2/5
f 601/2/5 597/2/5 600/2/5
f 602/2/5 598/2/5 590/2/5
f 602/2/5 599/2/5 598/2/5
f 603/2/5 599/2/5 602/2/5
f 609/2/5 605/2/5 604/2/5
f 610/2/5 605/2/5 609/2/5
f 611/2/5 607/2/5 606/2/5
f 612/2/5 607/2/5 611/2/5
f 614/2/5 609/2/5 608/2/5
f 615/2/5 613/2/5 612/2/5
f 616/2/5 614/2/5 608/2/5
f 617/2/5 613/2/5 615/2/5
f 618/2/5 616/2/5 608/2/5
f 619/2/5 616/2/5 618/2/5
f 622/2/5 613/2/5 617/2/5
f 623/2/5 613/2/5 622/2/5
f 624/2/5 620/2/5 619/2/5
f 625/2/5 620/2/5 624/2/5
f 626/2/5 622/2/5 621/2/5
f 627/2/5 622/2/5 626/2/5
f 628/5/6 629/5/6 632/5/6
f 630/3/6 631/3/6 632/3/6
f 629/3/6 630/3/6 632/3/6
f 632/3/6 631/3/6 633/3/6
f 632/5/6 633/5/6 634/5/6
f 633/3/6 631/3/6 634/3/6
f 634/3/6 631/3/6 635/3/6
f 635/3/6 631/3/6 636/3/6
f 634/5/6 635/5/6 637/5/6
f 635/3/6 636/3/6 637/3/6
f 637/3/6 636/3/6 638/3/6
f 628/5/6 632/5/6 639/5/6
f 632/5/6 634/5/6 639/5/6
f 637/5/6 638/5/6 639/5/6
f 634/5/6 637/5/6 639/5/6
f 639/5/6 638/5/6 640/5/6
f 641/2/6 642/2/6 646/2/6
f 646/2/6 642/2/6 647/2/6
f 643/2/6 644/2/6 648/2/6
f 648/2/6 644/2/6 649/2/6
f 645/2/6 646/2/6 651/2/6
f 649/2/6 650/2/6 652/2/6
f 645/2/6 651/2/6 653/2/6
f 652/2/6 650/2/6 654/2/6
f 645/2/6 653/2/6 655/2/6
f 655/2/6 653/2/6 656/2/6
f 654/2/6 650/2/6 659/2/6
f 659/2/6 650/2/6 660/2/6
f 656/2/6 657/2/6 661/2/6
f 661/2/6 657/2/6 662/2/6
f 658/2/6 659/2/6 663/2/6
f 663/2/6 659/2/6 664/2/6
f 665/2/6 666/2/6 669/2/6
f 669/2/6 666/2/6 670/2/6
f 667/2/6 668/2/6 671/2/6
f 671/2/6 668/2/6 672/2/6
f 669/4/6 670/4/6 673/4/6
f 670/2/6 666/2/6 674/2/6
f 673/4/6 670/4/6 674/4/6
f 667/2/6 671/2/6 675/2/6
f 671/4/6 672/4/6 675/4/6
f 675/4/6 672/4/6 676/4/6
f 673/2/6 674/2/6 677/2/6
f 674/2/6 666/2/6 678/2/6
f 677/2/6 674/2/6 678/2/6
f 667/2/6 675/2/6 679/2/6
f 675/2/6 676/2/6 679/2/6
f 679/2/6 676/2/6 680/2/6
f 681/5/6 682/5/6 683/5/6
f 683/5/6 682/5/6 684/5/6
f 681/5/6 683/5/6 685/5/6
f 685/5/6 683/5/6 686/5/6
f 685/3/6 686/3/6 687/3/6
f 684/5/6 682/5/6 689/5/6
f 687/3/6 688/3/6 690/3/6
f 685/3/6 687/3/6 690/3/6
f 688/5/6 689/5/6 691/5/6
f 690/3/6 688/3/6 691/3/6
f 689/5/6 682/5/6 692/5/6
f 691/5/6 689/5/6 692/5/6
