# MagicaVoxel @ ephtracy

# material
mtllib Toxic Pipe.mtl
usemtl palette

# normals
vn -1 0 0
vn 1 0 0
vn 0 0 1
vn 0 0 -1
vn 0 -1 0
vn 0 1 0

# texcoords
vt 0.232422 0.5
vt 0.720703 0.5
vt 0.974609 0.5
vt 0.994141 0.5

# verts
v -6 3 4
v -6 3 -3
v -6 15 4
v -6 15 -3
v -5 3 5
v -5 3 4
v -5 3 -3
v -5 3 -4
v -5 15 4
v -5 15 -3
v -5 16 5
v -5 16 -4
v -4 3 6
v -4 3 5
v -4 3 -4
v -4 3 -5
v -4 16 5
v -4 16 -4
v -4 17 6
v -4 17 -5
v 0 7 3
v 0 7 -2
v 0 8 5
v 0 8 4
v 0 8 3
v 0 8 -2
v 0 8 -4
v 0 9 6
v 0 9 5
v 0 9 3
v 0 9 -2
v 0 9 -4
v 0 9 -5
v 0 10 7
v 0 10 6
v 0 10 4
v 0 10 3
v 0 10 -2
v 0 10 -3
v 0 10 -5
v 0 10 -6
v 0 11 5
v 0 11 4
v 0 11 3
v 0 11 -2
v 0 11 -3
v 0 11 -4
v 0 12 8
v 0 12 7
v 0 12 6
v 0 12 5
v 0 12 4
v 0 12 -3
v 0 12 -4
v 0 12 -5
v 0 12 -6
v 0 12 -7
v 0 17 8
v 0 17 7
v 0 17 6
v 0 17 5
v 0 17 -4
v 0 17 -5
v 0 17 -6
v 0 17 -7
v 0 18 5
v 0 18 4
v 0 18 -3
v 0 18 -4
v 0 19 7
v 0 19 6
v 0 19 4
v 0 19 3
v 0 19 -2
v 0 19 -3
v 0 19 -5
v 0 19 -6
v 0 20 6
v 0 20 5
v 0 20 3
v 0 20 -2
v 0 20 -4
v 0 20 -5
v 0 21 5
v 0 21 3
v 0 21 2
v 0 21 -2
v 0 21 -4
v 0 22 3
v 0 22 2
v 0 22 -2
v 1 17 5
v 1 17 -4
v 1 18 5
v 1 18 4
v 1 18 -3
v 1 18 -4
v 1 19 4
v 1 19 3
v 1 19 -2
v 1 19 -3
v 1 20 3
v 1 20 -2
v -2 3 6
v -2 3 -5
v -2 10 3
v -2 10 -2
v -2 11 4
v -2 11 3
v -2 11 -2
v -2 11 -3
v -2 12 6
v -2 12 4
v -2 12 -3
v -2 12 -5
v 2 7 3
v 2 7 -2
v 2 8 5
v 2 8 4
v 2 8 3
v 2 8 -2
v 2 8 -4
v 2 9 6
v 2 9 5
v 2 9 4
v 2 9 3
v 2 9 -2
v 2 9 -4
v 2 9 -5
v 2 10 7
v 2 10 6
v 2 10 5
v 2 10 -4
v 2 10 -5
v 2 10 -6
v 2 12 8
v 2 12 7
v 2 12 6
v 2 12 -5
v 2 12 -6
v 2 12 -7
v 2 17 8
v 2 17 7
v 2 17 6
v 2 17 -5
v 2 17 -6
v 2 17 -7
v 2 19 7
v 2 19 6
v 2 19 5
v 2 19 -4
v 2 19 -5
v 2 19 -6
v 2 20 6
v 2 20 5
v 2 20 3
v 2 20 -2
v 2 20 -4
v 2 20 -5
v 2 21 5
v 2 21 3
v 2 21 1
v 2 21 -2
v 2 21 -4
v 2 22 3
v 2 22 1
v 2 22 -2
v 20 8 3
v 20 8 -2
v 20 9 5
v 20 9 3
v 20 9 -2
v 20 9 -4
v 20 10 6
v 20 10 5
v 20 10 -4
v 20 10 -5
v 20 12 7
v 20 12 6
v 20 12 -5
v 20 12 -6
v 20 17 7
v 20 17 6
v 20 17 -5
v 20 17 -6
v 20 19 6
v 20 19 5
v 20 19 -4
v 20 19 -5
v 20 20 5
v 20 20 3
v 20 20 -2
v 20 20 -4
v 20 21 3
v 20 21 -2
v 0 12 8
v 0 17 8
v 2 12 8
v 2 17 8
v 0 10 7
v 0 12 7
v 0 17 7
v 0 19 7
v 2 10 7
v 2 12 7
v 2 17 7
v 2 19 7
v 4 13 7
v 4 16 7
v 5 12 7
v 5 13 7
v 5 16 7
v 5 17 7
v 8 12 7
v 8 13 7
v 8 16 7
v 8 17 7
v 9 13 7
v 9 16 7
v 20 12 7
v 20 17 7
v -4 3 6
v -4 17 6
v -2 3 6
v -2 12 6
v 0 9 6
v 0 10 6
v 0 12 6
v 0 17 6
v 0 19 6
v 0 20 6
v 2 9 6
v 2 10 6
v 2 12 6
v 2 17 6
v 2 19 6
v 2 20 6
v 5 12 6
v 5 17 6
v 8 12 6
v 8 17 6
v 20 10 6
v 20 12 6
v 20 17 6
v 20 19 6
v -5 3 5
v -5 16 5
v -4 3 5
v -4 16 5
v 0 8 5
v 0 9 5
v 0 20 5
v 0 21 5
v 2 8 5
v 2 9 5
v 2 10 5
v 2 19 5
v 2 20 5
v 2 21 5
v 20 9 5
v 20 10 5
v 20 19 5
v 20 20 5
v -6 3 4
v -6 15 4
v -5 3 4
v -5 15 4
v -2 11 4
v -2 12 4
v 0 11 4
v 0 12 4
v -2 10 3
v -2 11 3
v 0 7 3
v 0 8 3
v 0 10 3
v 0 11 3
v 0 21 3
v 0 22 3
v 2 7 3
v 2 8 3
v 2 9 3
v 2 20 3
v 2 21 3
v 2 22 3
v 3 20 3
v 3 21 3
v 13 20 3
v 13 21 3
v 16 20 3
v 16 21 3
v 20 8 3
v 20 9 3
v 20 20 3
v 20 21 3
v 0 19 -2
v 0 20 -2
v 1 19 -2
v 1 20 -2
v 0 18 -3
v 0 19 -3
v 1 18 -3
v 1 19 -3
v 0 17 -4
v 0 18 -4
v 1 17 -4
v 1 18 -4
v 0 17 5
v 0 18 5
v 1 17 5
v 1 18 5
v 0 18 4
v 0 19 4
v 1 18 4
v 1 19 4
v 0 19 3
v 0 20 3
v 1 19 3
v 1 20 3
v -2 10 -2
v -2 11 -2
v 0 7 -2
v 0 8 -2
v 0 10 -2
v 0 11 -2
v 0 21 -2
v 0 22 -2
v 2 7 -2
v 2 8 -2
v 2 9 -2
v 2 20 -2
v 2 21 -2
v 2 22 -2
v 13 20 -2
v 13 21 -2
v 16 20 -2
v 16 21 -2
v 20 8 -2
v 20 9 -2
v 20 20 -2
v 20 21 -2
v -6 3 -3
v -6 15 -3
v -5 3 -3
v -5 15 -3
v -2 11 -3
v -2 12 -3
v 0 11 -3
v 0 12 -3
v -5 3 -4
v -5 16 -4
v -4 3 -4
v -4 16 -4
v 0 8 -4
v 0 9 -4
v 0 20 -4
v 0 21 -4
v 2 8 -4
v 2 9 -4
v 2 10 -4
v 2 19 -4
v 2 20 -4
v 2 21 -4
v 20 9 -4
v 20 10 -4
v 20 19 -4
v 20 20 -4
v -4 3 -5
v -4 17 -5
v -2 3 -5
v -2 12 -5
v 0 9 -5
v 0 10 -5
v 0 12 -5
v 0 17 -5
v 0 19 -5
v 0 20 -5
v 2 9 -5
v 2 10 -5
v 2 12 -5
v 2 17 -5
v 2 19 -5
v 2 20 -5
v 5 12 -5
v 6 11 -5
v 6 12 -5
v 8 11 -5
v 8 12 -5
v 9 12 -5
v 20 10 -5
v 20 12 -5
v 20 17 -5
v 20 19 -5
v 0 10 -6
v 0 12 -6
v 0 17 -6
v 0 19 -6
v 2 10 -6
v 2 12 -6
v 2 17 -6
v 2 19 -6
v 5 12 -6
v 5 13 -6
v 6 13 -6
v 6 14 -6
v 8 13 -6
v 8 14 -6
v 9 12 -6
v 9 13 -6
v 20 12 -6
v 20 17 -6
v 0 12 -7
v 0 17 -7
v 2 12 -7
v 2 17 -7
v -4 3 6
v -2 3 6
v -5 3 5
v -4 3 5
v -6 3 4
v -5 3 4
v -6 3 -3
v -5 3 -3
v -5 3 -4
v -4 3 -4
v -4 3 -5
v -2 3 -5
v 0 7 3
v 2 7 3
v 0 7 -2
v 2 7 -2
v 0 8 5
v 2 8 5
v 0 8 4
v 2 8 4
v 0 8 3
v 2 8 3
v 20 8 3
v 0 8 -2
v 2 8 -2
v 20 8 -2
v 0 8 -4
v 2 8 -4
v 0 9 6
v 2 9 6
v 0 9 5
v 2 9 5
v 20 9 5
v 2 9 4
v 2 9 3
v 20 9 3
v 2 9 -2
v 20 9 -2
v 0 9 -4
v 2 9 -4
v 20 9 -4
v 0 9 -5
v 2 9 -5
v 0 10 7
v 2 10 7
v 0 10 6
v 2 10 6
v 20 10 6
v 2 10 5
v 20 10 5
v -2 10 3
v 0 10 3
v -2 10 -2
v 0 10 -2
v 2 10 -4
v 20 10 -4
v 0 10 -5
v 2 10 -5
v 20 10 -5
v 0 10 -6
v 2 10 -6
v -2 11 4
v 0 11 4
v -2 11 3
v 0 11 3
v -2 11 -2
v 0 11 -2
v -2 11 -3
v 0 11 -3
v 0 12 8
v 2 12 8
v 0 12 7
v 2 12 7
v 5 12 7
v 8 12 7
v 20 12 7
v -2 12 6
v 0 12 6
v 2 12 6
v 5 12 6
v 8 12 6
v 20 12 6
v 0 12 5
v -2 12 4
v 0 12 4
v -2 12 -3
v 0 12 -3
v 0 12 -4
v -2 12 -5
v 0 12 -5
v 2 12 -5
v 5 12 -5
v 6 12 -5
v 8 12 -5
v 9 12 -5
v 20 12 -5
v 0 12 -6
v 2 12 -6
v 5 12 -6
v 9 12 -6
v 20 12 -6
v 0 12 -7
v 2 12 -7
v 0 18 5
v 1 18 5
v 0 18 4
v 1 18 4
v 0 18 -3
v 1 18 -3
v 0 18 -4
v 1 18 -4
v 0 19 4
v 1 19 4
v 0 19 3
v 1 19 3
v 0 19 -2
v 1 19 -2
v 0 19 -3
v 1 19 -3
v 0 20 3
v 1 20 3
v 0 20 -2
v 1 20 -2
v -6 15 4
v -5 15 4
v -6 15 -3
v -5 15 -3
v -5 16 5
v -4 16 5
v -5 16 -4
v -4 16 -4
v 0 17 8
v 2 17 8
v 0 17 7
v 2 17 7
v 5 17 7
v 8 17 7
v 20 17 7
v -4 17 6
v 0 17 6
v 2 17 6
v 5 17 6
v 8 17 6
v 20 17 6
v 0 17 5
v 1 17 5
v 0 17 -4
v 1 17 -4
v -4 17 -5
v 0 17 -5
v 2 17 -5
v 20 17 -5
v 0 17 -6
v 2 17 -6
v 20 17 -6
v 0 17 -7
v 2 17 -7
v 0 19 7
v 2 19 7
v 0 19 6
v 2 19 6
v 20 19 6
v 2 19 5
v 20 19 5
v 2 19 -4
v 20 19 -4
v 0 19 -5
v 2 19 -5
v 20 19 -5
v 0 19 -6
v 2 19 -6
v 0 20 6
v 2 20 6
v 0 20 5
v 2 20 5
v 20 20 5
v 2 20 3
v 3 20 3
v 13 20 3
v 16 20 3
v 20 20 3
v 2 20 -2
v 13 20 -2
v 16 20 -2
v 20 20 -2
v 0 20 -4
v 2 20 -4
v 20 20 -4
v 0 20 -5
v 2 20 -5
v 0 21 5
v 2 21 5
v 0 21 3
v 2 21 3
v 3 21 3
v 13 21 3
v 16 21 3
v 20 21 3
v 12 21 2
v 13 21 2
v 16 21 2
v 17 21 2
v 2 21 1
v 3 21 1
v 12 21 -1
v 13 21 -1
v 16 21 -1
v 17 21 -1
v 0 21 -2
v 2 21 -2
v 13 21 -2
v 16 21 -2
v 20 21 -2
v 0 21 -4
v 2 21 -4
v 0 22 3
v 2 22 3
v 0 22 2
v 1 22 2
v 1 22 1
v 2 22 1
v 0 22 -2
v 2 22 -2

# faces
f 3/2/1 2/2/1 1/2/1
f 4/2/1 2/2/1 3/2/1
f 9/2/1 6/2/1 5/2/1
f 10/2/1 8/2/1 7/2/1
f 11/2/1 9/2/1 5/2/1
f 11/2/1 10/2/1 9/2/1
f 12/2/1 8/2/1 10/2/1
f 12/2/1 10/2/1 11/2/1
f 17/2/1 14/2/1 13/2/1
f 18/2/1 16/2/1 15/2/1
f 19/2/1 17/2/1 13/2/1
f 19/2/1 18/2/1 17/2/1
f 20/2/1 16/2/1 18/2/1
f 20/2/1 18/2/1 19/2/1
f 25/3/1 22/3/1 21/3/1
f 26/3/1 22/3/1 25/3/1
f 29/1/1 24/1/1 23/1/1
f 30/3/1 27/3/1 26/3/1
f 30/3/1 25/3/1 24/3/1
f 30/3/1 26/3/1 25/3/1
f 31/3/1 27/3/1 30/3/1
f 32/3/1 27/3/1 31/3/1
f 35/1/1 29/1/1 28/1/1
f 36/1/1 24/1/1 29/1/1
f 36/3/1 30/3/1 24/3/1
f 36/1/1 29/1/1 35/1/1
f 37/2/1 31/2/1 30/2/1
f 37/3/1 30/3/1 36/3/1
f 38/3/1 33/3/1 32/3/1
f 38/2/1 31/2/1 37/2/1
f 38/3/1 32/3/1 31/3/1
f 39/3/1 33/3/1 38/3/1
f 40/3/1 33/3/1 39/3/1
f 42/3/1 35/3/1 34/3/1
f 42/3/1 36/3/1 35/3/1
f 43/2/1 37/2/1 36/2/1
f 43/3/1 36/3/1 42/3/1
f 44/2/1 37/2/1 43/2/1
f 45/2/1 39/2/1 38/2/1
f 46/3/1 41/3/1 40/3/1
f 46/2/1 39/2/1 45/2/1
f 46/3/1 40/3/1 39/3/1
f 47/3/1 41/3/1 46/3/1
f 49/3/1 42/3/1 34/3/1
f 50/3/1 42/3/1 49/3/1
f 51/2/1 43/2/1 42/2/1
f 51/3/1 42/3/1 50/3/1
f 52/2/1 43/2/1 51/2/1
f 53/2/1 47/2/1 46/2/1
f 54/3/1 41/3/1 47/3/1
f 54/2/1 47/2/1 53/2/1
f 55/3/1 41/3/1 54/3/1
f 56/3/1 41/3/1 55/3/1
f 58/3/1 50/3/1 49/3/1
f 58/3/1 49/3/1 48/3/1
f 59/3/1 50/3/1 58/3/1
f 60/3/1 50/3/1 59/3/1
f 63/3/1 57/3/1 56/3/1
f 63/3/1 56/3/1 55/3/1
f 64/3/1 57/3/1 63/3/1
f 65/3/1 57/3/1 64/3/1
f 66/3/1 61/3/1 60/3/1
f 66/3/1 60/3/1 59/3/1
f 69/3/1 64/3/1 63/3/1
f 69/3/1 63/3/1 62/3/1
f 70/3/1 67/3/1 66/3/1
f 70/3/1 66/3/1 59/3/1
f 71/3/1 67/3/1 70/3/1
f 72/3/1 67/3/1 71/3/1
f 75/3/1 69/3/1 68/3/1
f 76/3/1 64/3/1 69/3/1
f 76/3/1 69/3/1 75/3/1
f 77/3/1 64/3/1 76/3/1
f 78/3/1 73/3/1 72/3/1
f 78/3/1 72/3/1 71/3/1
f 79/3/1 73/3/1 78/3/1
f 80/3/1 73/3/1 79/3/1
f 81/3/1 75/3/1 74/3/1
f 81/3/1 76/3/1 75/3/1
f 82/3/1 76/3/1 81/3/1
f 83/3/1 76/3/1 82/3/1
f 84/3/1 80/3/1 79/3/1
f 84/3/1 82/3/1 81/3/1
f 84/3/1 81/3/1 80/3/1
f 85/3/1 82/3/1 84/3/1
f 86/3/1 82/3/1 85/3/1
f 87/3/1 82/3/1 86/3/1
f 88/3/1 82/3/1 87/3/1
f 89/1/1 86/1/1 85/1/1
f 90/3/1 87/3/1 86/3/1
f 90/1/1 86/1/1 89/1/1
f 91/3/1 87/3/1 90/3/1
f 94/4/1 93/4/1 92/4/1
f 95/4/1 93/4/1 94/4/1
f 96/4/1 93/4/1 95/4/1
f 97/4/1 93/4/1 96/4/1
f 98/4/1 96/4/1 95/4/1
f 99/4/1 96/4/1 98/4/1
f 100/4/1 96/4/1 99/4/1
f 101/4/1 96/4/1 100/4/1
f 102/4/1 100/4/1 99/4/1
f 103/4/1 100/4/1 102/4/1
f 104/2/2 105/2/2 106/2/2
f 106/2/2 105/2/2 107/2/2
f 104/2/2 106/2/2 108/2/2
f 108/2/2 106/2/2 109/2/2
f 107/2/2 105/2/2 110/2/2
f 110/2/2 105/2/2 111/2/2
f 104/2/2 108/2/2 112/2/2
f 112/2/2 108/2/2 113/2/2
f 111/2/2 105/2/2 114/2/2
f 114/2/2 105/2/2 115/2/2
f 116/3/2 117/3/2 120/3/2
f 120/3/2 117/3/2 121/3/2
f 118/1/2 119/1/2 124/1/2
f 119/3/2 120/3/2 125/3/2
f 124/1/2 119/1/2 125/1/2
f 125/3/2 120/3/2 126/3/2
f 121/3/2 122/3/2 127/3/2
f 127/3/2 122/3/2 128/3/2
f 123/1/2 124/1/2 131/1/2
f 131/1/2 124/1/2 132/1/2
f 128/3/2 129/3/2 133/3/2
f 133/3/2 129/3/2 134/3/2
f 130/3/2 131/3/2 137/3/2
f 137/3/2 131/3/2 138/3/2
f 134/3/2 135/3/2 139/3/2
f 139/3/2 135/3/2 140/3/2
f 136/3/2 137/3/2 142/3/2
f 142/3/2 137/3/2 143/3/2
f 140/3/2 141/3/2 146/3/2
f 146/3/2 141/3/2 147/3/2
f 143/3/2 144/3/2 148/3/2
f 148/3/2 144/3/2 149/3/2
f 145/3/2 146/3/2 152/3/2
f 152/3/2 146/3/2 153/3/2
f 149/3/2 150/3/2 154/3/2
f 154/3/2 150/3/2 155/3/2
f 151/3/2 152/3/2 158/3/2
f 158/3/2 152/3/2 159/3/2
f 155/3/2 156/3/2 160/3/2
f 160/3/2 156/3/2 161/3/2
f 157/3/2 158/3/2 163/3/2
f 163/3/2 158/3/2 164/3/2
f 161/1/2 162/1/2 165/1/2
f 162/3/2 163/3/2 166/3/2
f 165/1/2 162/1/2 166/1/2
f 166/3/2 163/3/2 167/3/2
f 168/3/2 169/3/2 171/3/2
f 171/3/2 169/3/2 172/3/2
f 170/3/2 171/3/2 175/3/2
f 172/3/2 173/3/2 175/3/2
f 171/3/2 172/3/2 175/3/2
f 175/3/2 173/3/2 176/3/2
f 174/3/2 175/3/2 179/3/2
f 176/3/2 177/3/2 179/3/2
f 175/3/2 176/3/2 179/3/2
f 179/3/2 177/3/2 180/3/2
f 178/3/2 179/3/2 182/3/2
f 180/3/2 181/3/2 182/3/2
f 179/3/2 180/3/2 182/3/2
f 182/3/2 181/3/2 183/3/2
f 183/3/2 181/3/2 184/3/2
f 184/3/2 181/3/2 185/3/2
f 183/3/2 184/3/2 186/3/2
f 186/3/2 184/3/2 187/3/2
f 187/3/2 184/3/2 188/3/2
f 188/3/2 184/3/2 189/3/2
f 187/3/2 188/3/2 190/3/2
f 190/3/2 188/3/2 191/3/2
f 191/3/2 188/3/2 192/3/2
f 192/3/2 188/3/2 193/3/2
f 191/3/2 192/3/2 194/3/2
f 194/3/2 192/3/2 195/3/2
f 198/3/3 197/3/3 196/3/3
f 199/3/3 197/3/3 198/3/3
f 204/3/3 201/3/3 200/3/3
f 205/3/3 201/3/3 204/3/3
f 206/3/3 203/3/3 202/3/3
f 207/3/3 203/3/3 206/3/3
f 208/3/3 206/3/3 205/3/3
f 209/3/3 206/3/3 208/3/3
f 210/3/3 208/3/3 205/3/3
f 211/1/3 209/1/3 208/1/3
f 211/3/3 208/3/3 210/3/3
f 212/3/3 206/3/3 209/3/3
f 212/1/3 209/1/3 211/1/3
f 213/3/3 206/3/3 212/3/3
f 214/1/3 211/1/3 210/1/3
f 214/1/3 212/1/3 211/1/3
f 214/1/3 213/1/3 212/1/3
f 215/1/3 213/1/3 214/1/3
f 216/1/3 213/1/3 215/1/3
f 217/1/3 213/1/3 216/1/3
f 218/3/3 215/3/3 214/3/3
f 218/1/3 216/1/3 215/1/3
f 219/3/3 217/3/3 216/3/3
f 219/1/3 216/1/3 218/1/3
f 220/3/3 218/3/3 214/3/3
f 220/3/3 219/3/3 218/3/3
f 221/3/3 217/3/3 219/3/3
f 221/3/3 219/3/3 220/3/3
f 224/2/3 223/2/3 222/2/3
f 225/2/3 223/2/3 224/2/3
f 228/2/3 223/2/3 225/2/3
f 229/2/3 223/2/3 228/2/3
f 232/1/3 227/1/3 226/1/3
f 233/1/3 227/1/3 232/1/3
f 236/3/3 231/3/3 230/3/3
f 237/3/3 231/3/3 236/3/3
f 238/3/3 234/3/3 233/3/3
f 239/3/3 236/3/3 235/3/3
f 240/3/3 238/3/3 233/3/3
f 241/3/3 236/3/3 239/3/3
f 242/3/3 240/3/3 233/3/3
f 243/3/3 240/3/3 242/3/3
f 244/3/3 236/3/3 241/3/3
f 245/3/3 236/3/3 244/3/3
f 248/2/3 247/2/3 246/2/3
f 249/2/3 247/2/3 248/2/3
f 254/1/3 251/1/3 250/1/3
f 255/1/3 251/1/3 254/1/3
f 258/3/3 253/3/3 252/3/3
f 259/3/3 253/3/3 258/3/3
f 260/3/3 256/3/3 255/3/3
f 261/3/3 256/3/3 260/3/3
f 262/3/3 258/3/3 257/3/3
f 263/3/3 258/3/3 262/3/3
f 266/2/3 265/2/3 264/2/3
f 267/2/3 265/2/3 266/2/3
f 270/2/3 269/2/3 268/2/3
f 271/2/3 269/2/3 270/2/3
f 276/2/3 273/2/3 272/2/3
f 277/2/3 273/2/3 276/2/3
f 280/3/3 275/3/3 274/3/3
f 281/3/3 275/3/3 280/3/3
f 284/1/3 279/1/3 278/1/3
f 285/1/3 279/1/3 284/1/3
f 286/1/3 284/1/3 283/1/3
f 287/1/3 284/1/3 286/1/3
f 288/3/3 287/3/3 286/3/3
f 289/3/3 287/3/3 288/3/3
f 290/1/3 289/1/3 288/1/3
f 291/1/3 289/1/3 290/1/3
f 292/3/3 282/3/3 281/3/3
f 293/3/3 282/3/3 292/3/3
f 294/3/3 291/3/3 290/3/3
f 295/3/3 291/3/3 294/3/3
f 298/3/3 297/3/3 296/3/3
f 299/3/3 297/3/3 298/3/3
f 302/3/3 301/3/3 300/3/3
f 303/3/3 301/3/3 302/3/3
f 306/3/3 305/3/3 304/3/3
f 307/3/3 305/3/3 306/3/3
f 308/3/4 309/3/4 310/3/4
f 310/3/4 309/3/4 311/3/4
f 312/3/4 313/3/4 314/3/4
f 314/3/4 313/3/4 315/3/4
f 316/3/4 317/3/4 318/3/4
f 318/3/4 317/3/4 319/3/4
f 320/2/4 321/2/4 324/2/4
f 324/2/4 321/2/4 325/2/4
f 322/3/4 323/3/4 328/3/4
f 328/3/4 323/3/4 329/3/4
f 326/3/4 327/3/4 332/3/4
f 332/3/4 327/3/4 333/3/4
f 331/3/4 332/3/4 334/3/4
f 334/3/4 332/3/4 335/3/4
f 334/1/4 335/1/4 336/1/4
f 336/1/4 335/1/4 337/1/4
f 329/3/4 330/3/4 338/3/4
f 338/3/4 330/3/4 339/3/4
f 336/3/4 337/3/4 340/3/4
f 340/3/4 337/3/4 341/3/4
f 342/2/4 343/2/4 344/2/4
f 344/2/4 343/2/4 345/2/4
f 346/2/4 347/2/4 348/2/4
f 348/2/4 347/2/4 349/2/4
f 350/2/4 351/2/4 352/2/4
f 352/2/4 351/2/4 353/2/4
f 354/3/4 355/3/4 358/3/4
f 358/3/4 355/3/4 359/3/4
f 356/3/4 357/3/4 362/3/4
f 362/3/4 357/3/4 363/3/4
f 359/3/4 360/3/4 364/3/4
f 364/3/4 360/3/4 365/3/4
f 361/3/4 362/3/4 366/3/4
f 366/3/4 362/3/4 367/3/4
f 368/2/4 369/2/4 370/2/4
f 370/2/4 369/2/4 371/2/4
f 371/2/4 369/2/4 374/2/4
f 374/2/4 369/2/4 375/2/4
f 372/3/4 373/3/4 378/3/4
f 378/3/4 373/3/4 379/3/4
f 376/3/4 377/3/4 382/3/4
f 382/3/4 377/3/4 383/3/4
f 379/3/4 380/3/4 384/3/4
f 379/3/4 384/3/4 385/3/4
f 385/3/4 384/3/4 386/3/4
f 379/3/4 385/3/4 387/3/4
f 385/1/4 386/1/4 387/1/4
f 387/1/4 386/1/4 388/1/4
f 387/3/4 388/3/4 389/3/4
f 379/3/4 387/3/4 390/3/4
f 387/3/4 389/3/4 390/3/4
f 390/3/4 389/3/4 391/3/4
f 381/3/4 382/3/4 392/3/4
f 392/3/4 382/3/4 393/3/4
f 394/3/4 395/3/4 398/3/4
f 398/3/4 395/3/4 399/3/4
f 396/3/4 397/3/4 400/3/4
f 400/3/4 397/3/4 401/3/4
f 399/3/4 400/3/4 402/3/4
f 402/3/4 400/3/4 403/3/4
f 402/1/4 403/1/4 404/1/4
f 403/3/4 400/3/4 404/3/4
f 404/3/4 400/3/4 405/3/4
f 402/1/4 404/1/4 406/1/4
f 404/1/4 405/1/4 406/1/4
f 405/3/4 400/3/4 407/3/4
f 406/1/4 405/1/4 407/1/4
f 402/1/4 406/1/4 408/1/4
f 406/3/4 407/3/4 409/3/4
f 408/1/4 406/1/4 409/1/4
f 408/3/4 409/3/4 410/3/4
f 407/3/4 400/3/4 411/3/4
f 410/3/4 409/3/4 411/3/4
f 409/3/4 407/3/4 411/3/4
f 412/3/4 413/3/4 414/3/4
f 414/3/4 413/3/4 415/3/4
f 419/2/5 417/2/5 416/2/5
f 421/2/5 419/2/5 418/2/5
f 422/2/5 421/2/5 420/2/5
f 423/2/5 419/2/5 421/2/5
f 423/2/5 421/2/5 422/2/5
f 424/2/5 419/2/5 423/2/5
f 425/2/5 417/2/5 419/2/5
f 425/2/5 419/2/5 424/2/5
f 426/2/5 417/2/5 425/2/5
f 427/2/5 417/2/5 426/2/5
f 430/3/5 429/3/5 428/3/5
f 431/3/5 429/3/5 430/3/5
f 434/1/5 433/1/5 432/1/5
f 435/1/5 433/1/5 434/1/5
f 436/3/5 435/3/5 434/3/5
f 437/3/5 435/3/5 436/3/5
f 440/3/5 438/3/5 437/3/5
f 441/3/5 438/3/5 440/3/5
f 442/3/5 440/3/5 439/3/5
f 443/3/5 440/3/5 442/3/5
f 446/1/5 445/1/5 444/1/5
f 447/1/5 445/1/5 446/1/5
f 449/3/5 448/3/5 447/3/5
f 450/3/5 448/3/5 449/3/5
f 451/3/5 448/3/5 450/3/5
f 455/3/5 453/3/5 452/3/5
f 456/3/5 453/3/5 455/3/5
f 457/3/5 455/3/5 454/3/5
f 458/3/5 455/3/5 457/3/5
f 461/3/5 460/3/5 459/3/5
f 462/3/5 460/3/5 461/3/5
f 464/3/5 463/3/5 462/3/5
f 465/3/5 463/3/5 464/3/5
f 468/2/5 467/2/5 466/2/5
f 469/2/5 467/2/5 468/2/5
f 473/3/5 471/3/5 470/3/5
f 474/3/5 471/3/5 473/3/5
f 475/3/5 473/3/5 472/3/5
f 476/3/5 473/3/5 475/3/5
f 479/2/5 478/2/5 477/2/5
f 480/2/5 478/2/5 479/2/5
f 483/2/5 482/2/5 481/2/5
f 484/2/5 482/2/5 483/2/5
f 487/3/5 486/3/5 485/3/5
f 488/3/5 486/3/5 487/3/5
f 494/3/5 489/3/5 488/3/5
f 495/1/5 490/1/5 489/1/5
f 495/3/5 489/3/5 494/3/5
f 496/3/5 491/3/5 490/3/5
f 496/1/5 490/1/5 495/1/5
f 497/3/5 491/3/5 496/3/5
f 498/2/5 493/2/5 492/2/5
f 499/2/5 498/2/5 492/2/5
f 500/2/5 498/2/5 499/2/5
f 503/2/5 502/2/5 501/2/5
f 504/2/5 503/2/5 501/2/5
f 505/2/5 503/2/5 504/2/5
f 513/3/5 507/3/5 506/3/5
f 514/1/5 510/1/5 509/1/5
f 514/1/5 508/1/5 507/1/5
f 514/3/5 507/3/5 513/3/5
f 514/1/5 509/1/5 508/1/5
f 515/3/5 511/3/5 510/3/5
f 515/1/5 510/1/5 514/1/5
f 516/3/5 511/3/5 515/3/5
f 517/3/5 513/3/5 512/3/5
f 518/3/5 513/3/5 517/3/5
f 521/3/5 520/3/5 519/3/5
f 522/3/5 520/3/5 521/3/5
f 525/3/5 524/3/5 523/3/5
f 526/3/5 524/3/5 525/3/5
f 529/3/5 528/3/5 527/3/5
f 530/3/5 528/3/5 529/3/5
f 533/3/5 532/3/5 531/3/5
f 534/3/5 532/3/5 533/3/5
f 537/3/5 536/3/5 535/3/5
f 538/3/5 536/3/5 537/3/5
f 539/2/6 540/2/6 541/2/6
f 541/2/6 540/2/6 542/2/6
f 543/2/6 544/2/6 545/2/6
f 545/2/6 544/2/6 546/2/6
f 547/3/6 548/3/6 549/3/6
f 549/3/6 548/3/6 550/3/6
f 550/3/6 551/3/6 556/3/6
f 551/1/6 552/1/6 557/1/6
f 556/3/6 551/3/6 557/3/6
f 552/3/6 553/3/6 558/3/6
f 557/1/6 552/1/6 558/1/6
f 558/3/6 553/3/6 559/3/6
f 554/2/6 555/2/6 560/2/6
f 554/2/6 560/2/6 562/2/6
f 560/2/6 561/2/6 562/2/6
f 562/2/6 561/2/6 563/2/6
f 554/2/6 562/2/6 564/2/6
f 564/2/6 562/2/6 565/2/6
f 566/3/6 567/3/6 569/3/6
f 569/3/6 567/3/6 570/3/6
f 568/3/6 569/3/6 571/3/6
f 571/3/6 569/3/6 572/3/6
f 573/3/6 574/3/6 575/3/6
f 575/3/6 574/3/6 576/3/6
f 576/3/6 577/3/6 578/3/6
f 578/3/6 577/3/6 579/3/6
f 580/3/6 581/3/6 583/3/6
f 583/3/6 581/3/6 584/3/6
f 582/3/6 583/3/6 585/3/6
f 585/3/6 583/3/6 586/3/6
f 587/3/6 588/3/6 589/3/6
f 589/3/6 588/3/6 590/3/6
f 590/3/6 591/3/6 592/3/6
f 592/3/6 591/3/6 593/3/6
f 593/3/6 591/3/6 594/3/6
f 594/3/6 591/3/6 595/3/6
f 595/3/6 591/3/6 596/3/6
f 597/3/6 598/3/6 602/3/6
f 599/3/6 600/3/6 602/3/6
f 598/3/6 599/3/6 602/3/6
f 602/3/6 600/3/6 603/3/6
f 601/3/6 602/3/6 604/3/6
f 604/3/6 602/3/6 605/3/6
f 606/3/6 607/3/6 608/3/6
f 608/3/6 607/3/6 609/3/6
f 610/3/6 611/3/6 614/3/6
f 611/1/6 612/1/6 615/1/6
f 614/3/6 611/3/6 615/3/6
f 612/3/6 613/3/6 616/3/6
f 615/1/6 612/1/6 616/1/6
f 616/3/6 613/3/6 617/3/6
f 609/1/6 610/1/6 618/1/6
f 610/3/6 614/3/6 619/3/6
f 618/1/6 610/1/6 619/1/6
f 614/1/6 615/1/6 620/1/6
f 619/3/6 614/3/6 620/3/6
f 618/3/6 619/3/6 620/3/6
f 616/1/6 617/1/6 620/1/6
f 615/1/6 616/1/6 620/1/6
f 620/1/6 617/1/6 621/1/6
f 621/1/6 617/1/6 622/1/6
f 617/3/6 613/3/6 623/3/6
f 622/1/6 617/1/6 623/1/6
f 618/3/6 620/3/6 625/3/6
f 620/3/6 621/3/6 625/3/6
f 621/1/6 622/1/6 626/1/6
f 625/3/6 621/3/6 626/3/6
f 622/3/6 623/3/6 627/3/6
f 626/1/6 622/1/6 627/1/6
f 623/3/6 613/3/6 628/3/6
f 627/3/6 623/3/6 628/3/6
f 624/3/6 625/3/6 629/3/6
f 629/3/6 625/3/6 630/3/6
f 631/1/6 632/1/6 633/1/6
f 633/1/6 632/1/6 634/1/6
f 633/3/6 634/3/6 635/3/6
f 634/1/6 632/1/6 635/1/6
f 635/1/6 632/1/6 636/1/6
f 633/3/6 635/3/6 637/3/6
f 635/3/6 636/3/6 637/3/6
f 637/3/6 636/3/6 638/3/6
